<svg width="1353" height="85" viewBox="0 0 1353 85" fill="none" xmlns="http://www.w3.org/2000/svg">
<path fill-rule="evenodd" clip-rule="evenodd" d="M14.0008 70.7C7.25078 63.35 3.80078 53.75 3.80078 41.9C3.80078 30.35 7.25078 21.2 14.0008 14.15C20.7508 7.1 29.7508 3.5 41.0008 3.5C52.1008 3.5 61.1008 7.1 67.8508 14.15C74.7508 21.2 78.2008 30.35 78.2008 41.9C78.2008 53.75 74.7508 63.2 67.8508 70.55C61.1008 77.9 52.1008 81.5 41.0008 81.5C29.7508 81.5 20.7508 77.9 14.0008 70.7ZM70.0491 72.5915C62.651 80.6403 52.8066 84.5 41.0008 84.5C29.049 84.5 19.211 80.6439 11.8122 72.7518L11.8016 72.7406L11.7912 72.7292C4.44939 64.7348 0.800781 54.3683 0.800781 41.9C0.800781 29.6996 4.47 19.7664 11.8339 12.0753C19.2274 4.35312 29.0521 0.5 41.0008 0.5C52.8001 0.5 62.6181 4.35338 70.0064 12.0635C77.533 19.7601 81.2008 29.7036 81.2008 41.9C81.2008 54.3755 77.5471 64.5982 70.0491 72.5915ZM57.3429 61.2246L57.3586 61.2069C61.5708 56.4681 63.8008 50.1804 63.8008 41.9C63.8008 38.8039 63.4662 36.0457 62.8206 33.5687L29.1757 65.1745C32.5394 67.2436 36.4747 68.3 41.0008 68.3C47.8705 68.3 53.3055 65.9132 57.3275 61.2424L57.3429 61.2246ZM26.9206 67.2929C30.9408 69.9643 35.6626 71.3 41.0008 71.3C48.6508 71.3 54.9508 68.6 59.6008 63.2C64.4008 57.8 66.8008 50.75 66.8008 41.9C66.8008 37.9518 66.2918 34.4278 65.2738 31.2642C64.9381 30.221 64.5471 29.2171 64.1008 28.25L24.5008 65.45C25.2764 66.1222 26.0833 66.7366 26.9206 67.2929ZM24.4656 23.5235C20.4165 27.9656 18.2008 33.9437 18.2008 41.9C18.2008 45.6142 18.677 48.9983 19.6536 52.1266L53.4599 20.1131C49.9315 17.8697 45.8062 16.7 41.0008 16.7C34.0891 16.7 28.6304 18.9687 24.4656 23.5235ZM22.2508 21.5C17.6008 26.6 15.2008 33.35 15.2008 41.9C15.2008 46.4182 15.8605 50.5594 17.2547 54.3983C17.6194 55.4025 18.0343 56.3859 18.5008 57.35L58.1008 19.85C57.3286 19.1774 56.5274 18.5587 55.6973 17.9943C51.5287 15.1604 46.6298 13.7 41.0008 13.7C33.3508 13.7 27.0508 16.25 22.2508 21.5ZM129.442 70.7C122.692 63.35 119.242 53.75 119.242 41.9C119.242 30.35 122.692 21.2 129.442 14.15C136.192 7.1 145.192 3.5 156.442 3.5C167.542 3.5 176.542 7.1 183.292 14.15C190.192 21.2 193.642 30.35 193.642 41.9C193.642 53.75 190.192 63.2 183.292 70.55C176.542 77.9 167.542 81.5 156.442 81.5C145.192 81.5 136.192 77.9 129.442 70.7ZM185.491 72.5915C178.092 80.6403 168.248 84.5 156.442 84.5C144.49 84.5 134.652 80.6439 127.254 72.7518L127.243 72.7406L127.233 72.7292C119.891 64.7348 116.242 54.3683 116.242 41.9C116.242 29.6996 119.911 19.7664 127.275 12.0753C134.669 4.35312 144.493 0.5 156.442 0.5C168.241 0.5 178.06 4.35338 185.448 12.0635C192.974 19.7601 196.642 29.7036 196.642 41.9C196.642 54.3755 192.989 64.5982 185.491 72.5915ZM175.042 63.2C179.842 57.8 182.242 50.75 182.242 41.9C182.242 37.9518 181.733 34.4278 180.715 31.2642C180.38 30.221 179.989 29.2171 179.542 28.25L139.942 65.45C140.718 66.1222 141.525 66.7366 142.362 67.2929C146.382 69.9643 151.104 71.3 156.442 71.3C164.092 71.3 170.392 68.6 175.042 63.2ZM144.617 65.1745C147.981 67.2436 151.916 68.3 156.442 68.3C163.312 68.3 168.747 65.9132 172.769 61.2424L172.784 61.2246L172.8 61.2069C177.012 56.4681 179.242 50.1804 179.242 41.9C179.242 38.8039 178.908 36.0457 178.262 33.5687L144.617 65.1745ZM139.909 23.5213C135.859 27.9637 133.642 33.9424 133.642 41.9C133.642 45.6142 134.118 48.9983 135.095 52.1266L168.901 20.1131C165.373 17.8697 161.248 16.7 156.442 16.7C149.532 16.7 144.074 18.968 139.909 23.5213ZM137.692 21.5C133.042 26.6 130.642 33.35 130.642 41.9C130.642 46.4182 131.302 50.5594 132.696 54.3983C133.061 55.4025 133.476 56.3859 133.942 57.35L173.542 19.85C172.77 19.1774 171.969 18.5587 171.139 17.9943C166.97 15.1604 162.071 13.7 156.442 13.7C148.792 13.7 142.492 16.25 137.692 21.5ZM244.884 70.7C238.134 63.35 234.684 53.75 234.684 41.9C234.684 30.35 238.134 21.2 244.884 14.15C251.634 7.1 260.634 3.5 271.884 3.5C282.984 3.5 291.984 7.1 298.734 14.15C305.634 21.2 309.084 30.35 309.084 41.9C309.084 53.75 305.634 63.2 298.734 70.55C291.984 77.9 282.984 81.5 271.884 81.5C260.634 81.5 251.634 77.9 244.884 70.7ZM300.932 72.5915C293.534 80.6403 283.689 84.5 271.884 84.5C259.932 84.5 250.094 80.6439 242.695 72.7518L242.684 72.7406L242.674 72.7292C235.332 64.7348 231.684 54.3683 231.684 41.9C231.684 29.6996 235.353 19.7664 242.717 12.0753C250.11 4.35312 259.935 0.5 271.884 0.5C283.683 0.5 293.501 4.35338 300.889 12.0635C308.416 19.7601 312.084 29.7036 312.084 41.9C312.084 54.3755 308.43 64.5982 300.932 72.5915ZM290.484 63.2C295.284 57.8 297.684 50.75 297.684 41.9C297.684 37.9518 297.175 34.4278 296.157 31.2642C295.821 30.221 295.43 29.2171 294.984 28.25L255.384 65.45C256.159 66.1222 256.966 66.7366 257.803 67.2929C261.824 69.9643 266.545 71.3 271.884 71.3C279.534 71.3 285.834 68.6 290.484 63.2ZM260.059 65.1745C263.422 67.2436 267.358 68.3 271.884 68.3C278.753 68.3 284.188 65.9132 288.21 61.2424L288.226 61.2246L288.241 61.2069C292.454 56.4681 294.684 50.1804 294.684 41.9C294.684 38.8039 294.349 36.0457 293.703 33.5686L260.059 65.1745ZM255.348 23.5243C251.299 27.9664 249.084 33.9442 249.084 41.9C249.084 45.6142 249.56 48.9983 250.536 52.1266L284.343 20.1131C280.814 17.8697 276.689 16.7 271.884 16.7C264.972 16.7 259.513 18.969 255.348 23.5243ZM286.58 17.9943C282.412 15.1604 277.513 13.7 271.884 13.7C264.234 13.7 257.934 16.25 253.134 21.5C248.484 26.6 246.084 33.35 246.084 41.9C246.084 46.4182 246.743 50.5594 248.138 54.3983C248.502 55.4025 248.917 56.3859 249.384 57.35L288.984 19.85C288.211 19.1774 287.41 18.5587 286.58 17.9943Z" fill="white"/>
<path fill-rule="evenodd" clip-rule="evenodd" d="M1054 70.7C1047.25 63.35 1043.8 53.75 1043.8 41.9C1043.8 30.35 1047.25 21.2 1054 14.15C1060.75 7.1 1069.75 3.5 1081 3.5C1092.1 3.5 1101.1 7.1 1107.85 14.15C1114.75 21.2 1118.2 30.35 1118.2 41.9C1118.2 53.75 1114.75 63.2 1107.85 70.55C1101.1 77.9 1092.1 81.5 1081 81.5C1069.75 81.5 1060.75 77.9 1054 70.7ZM1110.05 72.5915C1102.65 80.6403 1092.81 84.5 1081 84.5C1069.05 84.5 1059.21 80.6439 1051.81 72.7518L1051.8 72.7406L1051.79 72.7292C1044.45 64.7348 1040.8 54.3683 1040.8 41.9C1040.8 29.6996 1044.47 19.7664 1051.83 12.0753C1059.23 4.35312 1069.05 0.5 1081 0.5C1092.8 0.5 1102.62 4.35338 1110.01 12.0635C1117.53 19.7601 1121.2 29.7036 1121.2 41.9C1121.2 54.3755 1117.55 64.5982 1110.05 72.5915ZM1097.34 61.2246L1097.36 61.2069C1101.57 56.4681 1103.8 50.1804 1103.8 41.9C1103.8 38.8039 1103.47 36.0457 1102.82 33.5687L1069.18 65.1745C1072.54 67.2436 1076.47 68.3 1081 68.3C1087.87 68.3 1093.31 65.9132 1097.33 61.2424L1097.34 61.2246ZM1066.92 67.2929C1070.94 69.9643 1075.66 71.3 1081 71.3C1088.65 71.3 1094.95 68.6 1099.6 63.2C1104.4 57.8 1106.8 50.75 1106.8 41.9C1106.8 37.9518 1106.29 34.4278 1105.27 31.2642C1104.94 30.221 1104.55 29.2171 1104.1 28.25L1064.5 65.45C1065.28 66.1222 1066.08 66.7366 1066.92 67.2929ZM1064.47 23.5235C1060.42 27.9656 1058.2 33.9437 1058.2 41.9C1058.2 45.6142 1058.68 48.9983 1059.65 52.1266L1093.46 20.1131C1089.93 17.8697 1085.81 16.7 1081 16.7C1074.09 16.7 1068.63 18.9687 1064.47 23.5235ZM1062.25 21.5C1057.6 26.6 1055.2 33.35 1055.2 41.9C1055.2 46.4182 1055.86 50.5594 1057.25 54.3983C1057.62 55.4025 1058.03 56.3859 1058.5 57.35L1098.1 19.85C1097.33 19.1774 1096.53 18.5587 1095.7 17.9943C1091.53 15.1604 1086.63 13.7 1081 13.7C1073.35 13.7 1067.05 16.25 1062.25 21.5ZM1169.44 70.7C1162.69 63.35 1159.24 53.75 1159.24 41.9C1159.24 30.35 1162.69 21.2 1169.44 14.15C1176.19 7.1 1185.19 3.5 1196.44 3.5C1207.54 3.5 1216.54 7.1 1223.29 14.15C1230.19 21.2 1233.64 30.35 1233.64 41.9C1233.64 53.75 1230.19 63.2 1223.29 70.55C1216.54 77.9 1207.54 81.5 1196.44 81.5C1185.19 81.5 1176.19 77.9 1169.44 70.7ZM1225.49 72.5915C1218.09 80.6403 1208.25 84.5 1196.44 84.5C1184.49 84.5 1174.65 80.6439 1167.25 72.7518L1167.24 72.7406L1167.23 72.7292C1159.89 64.7348 1156.24 54.3683 1156.24 41.9C1156.24 29.6996 1159.91 19.7664 1167.28 12.0753C1174.67 4.35312 1184.49 0.5 1196.44 0.5C1208.24 0.5 1218.06 4.35338 1225.45 12.0635C1232.97 19.7601 1236.64 29.7036 1236.64 41.9C1236.64 54.3755 1232.99 64.5982 1225.49 72.5915ZM1215.04 63.2C1219.84 57.8 1222.24 50.75 1222.24 41.9C1222.24 37.9518 1221.73 34.4278 1220.72 31.2642C1220.38 30.221 1219.99 29.2171 1219.54 28.25L1179.94 65.45C1180.72 66.1222 1181.52 66.7366 1182.36 67.2929C1186.38 69.9643 1191.1 71.3 1196.44 71.3C1204.09 71.3 1210.39 68.6 1215.04 63.2ZM1184.62 65.1745C1187.98 67.2436 1191.92 68.3 1196.44 68.3C1203.31 68.3 1208.75 65.9132 1212.77 61.2424L1212.78 61.2246L1212.8 61.2069C1217.01 56.4681 1219.24 50.1804 1219.24 41.9C1219.24 38.8039 1218.91 36.0457 1218.26 33.5687L1184.62 65.1745ZM1179.91 23.5213C1175.86 27.9637 1173.64 33.9424 1173.64 41.9C1173.64 45.6142 1174.12 48.9983 1175.1 52.1266L1208.9 20.1131C1205.37 17.8697 1201.25 16.7 1196.44 16.7C1189.53 16.7 1184.07 18.968 1179.91 23.5213ZM1177.69 21.5C1173.04 26.6 1170.64 33.35 1170.64 41.9C1170.64 46.4182 1171.3 50.5594 1172.7 54.3983C1173.06 55.4025 1173.48 56.3859 1173.94 57.35L1213.54 19.85C1212.77 19.1774 1211.97 18.5587 1211.14 17.9943C1206.97 15.1604 1202.07 13.7 1196.44 13.7C1188.79 13.7 1182.49 16.25 1177.69 21.5ZM1284.88 70.7C1278.13 63.35 1274.68 53.75 1274.68 41.9C1274.68 30.35 1278.13 21.2 1284.88 14.15C1291.63 7.1 1300.63 3.5 1311.88 3.5C1322.98 3.5 1331.98 7.1 1338.73 14.15C1345.63 21.2 1349.08 30.35 1349.08 41.9C1349.08 53.75 1345.63 63.2 1338.73 70.55C1331.98 77.9 1322.98 81.5 1311.88 81.5C1300.63 81.5 1291.63 77.9 1284.88 70.7ZM1340.93 72.5915C1333.53 80.6403 1323.69 84.5 1311.88 84.5C1299.93 84.5 1290.09 80.6439 1282.69 72.7518L1282.68 72.7406L1282.67 72.7292C1275.33 64.7348 1271.68 54.3683 1271.68 41.9C1271.68 29.6996 1275.35 19.7664 1282.72 12.0753C1290.11 4.35312 1299.93 0.5 1311.88 0.5C1323.68 0.5 1333.5 4.35338 1340.89 12.0635C1348.42 19.7601 1352.08 29.7036 1352.08 41.9C1352.08 54.3755 1348.43 64.5982 1340.93 72.5915ZM1330.48 63.2C1335.28 57.8 1337.68 50.75 1337.68 41.9C1337.68 37.9518 1337.17 34.4278 1336.16 31.2642C1335.82 30.221 1335.43 29.2171 1334.98 28.25L1295.38 65.45C1296.16 66.1222 1296.97 66.7366 1297.8 67.2929C1301.82 69.9643 1306.55 71.3 1311.88 71.3C1319.53 71.3 1325.83 68.6 1330.48 63.2ZM1300.06 65.1745C1303.42 67.2436 1307.36 68.3 1311.88 68.3C1318.75 68.3 1324.19 65.9132 1328.21 61.2424L1328.23 61.2246L1328.24 61.2069C1332.45 56.4681 1334.68 50.1804 1334.68 41.9C1334.68 38.8039 1334.35 36.0457 1333.7 33.5686L1300.06 65.1745ZM1295.35 23.5243C1291.3 27.9664 1289.08 33.9442 1289.08 41.9C1289.08 45.6142 1289.56 48.9983 1290.54 52.1266L1324.34 20.1131C1320.81 17.8697 1316.69 16.7 1311.88 16.7C1304.97 16.7 1299.51 18.969 1295.35 23.5243ZM1326.58 17.9943C1322.41 15.1604 1317.51 13.7 1311.88 13.7C1304.23 13.7 1297.93 16.25 1293.13 21.5C1288.48 26.6 1286.08 33.35 1286.08 41.9C1286.08 46.4182 1286.74 50.5594 1288.14 54.3983C1288.5 55.4025 1288.92 56.3859 1289.38 57.35L1328.98 19.85C1328.21 19.1774 1327.41 18.5587 1326.58 17.9943Z" fill="white"/>
</svg>
