<svg width="1153" height="775" viewBox="0 0 1153 775" fill="none" xmlns="http://www.w3.org/2000/svg">
<path d="M146.973 771.721L146.973 271.721L1149.97 271.721L1149.97 771.721L146.973 771.721Z" fill="white" stroke="black" stroke-width="5"/>
<path fill-rule="evenodd" clip-rule="evenodd" d="M1117.85 446.268L475.184 446.268L475.184 730.849L1117.85 730.849L1117.85 446.268ZM470.473 441.557L470.473 735.56L1122.56 735.56L1122.56 441.557L470.473 441.557Z" fill="black"/>
<path fill-rule="evenodd" clip-rule="evenodd" d="M1120.67 673.839L475.184 673.839V669.127L1120.67 669.127V673.839Z" fill="black"/>
<path d="M568.298 548.558L513.992 548.558V556.437H536.886L536.886 617.771H545.404L545.404 556.437L568.298 556.437V548.558Z" fill="black"/>
<path d="M610.849 556.331C614.576 552.604 614.576 546.748 610.849 543.234C607.335 539.507 601.479 539.507 597.752 543.234C594.238 546.748 594.238 552.604 597.752 556.331C601.479 559.845 607.335 559.845 610.849 556.331ZM632.785 609.891H612.766V592.215C612.766 580.289 612.766 571.771 612.873 566.66L582.632 566.66V574.539H604.354L604.354 609.891L578.798 609.891V617.771L632.785 617.771V609.891Z" fill="black"/>
<path d="M651.803 586.891C651.803 578.479 654.678 573.262 659.257 573.262C662.665 573.262 664.901 575.924 664.901 580.928L664.901 617.771L672.78 617.771V586.891C672.78 578.479 675.762 573.262 680.447 573.262C683.748 573.262 685.878 575.924 685.878 580.928L685.878 617.771H693.757L693.757 580.289C693.757 571.451 688.966 565.595 682.47 565.595C677.785 565.595 674.165 568.044 671.503 573.049C669.692 568.363 665.859 565.595 661.28 565.595C657.553 565.595 654.359 567.299 651.697 570.813C651.803 569.854 651.803 568.47 651.803 566.66H643.817C643.924 571.771 643.924 580.289 643.924 592.215C643.924 604.141 643.924 612.66 643.817 617.771H651.803V586.891Z" fill="black"/>
<path d="M715.864 588.489C717.248 579.118 723.637 573.262 732.901 573.262C742.165 573.262 748.341 579.118 749.512 588.489L715.864 588.489ZM750.364 602.864C747.489 607.868 741.1 611.169 734.392 611.169C724.596 611.169 717.568 605.526 715.971 596.262L757.499 596.262C757.818 594.558 757.924 592.748 757.924 590.725C757.924 583.164 755.582 577.095 751.003 572.516C746.424 567.937 740.674 565.595 733.647 565.595C726.086 565.595 719.91 568.044 715.012 573.049C710.22 578.053 707.771 584.442 707.771 592.215C707.771 599.989 710.327 606.378 715.332 611.382C720.336 616.387 726.725 618.836 734.285 618.836C744.188 618.836 752.707 614.577 757.073 607.016L750.364 602.864Z" fill="black"/>
<path d="M880.509 617.771L888.282 548.558H880.509L873.8 612.341L866.453 574.646H854.314L847.18 612.341L840.471 548.558H832.485L840.046 617.771L853.675 617.771L860.277 580.502L866.879 617.771H880.509Z" fill="black"/>
<path d="M943.398 618.836C947.125 618.836 950.213 617.452 952.662 614.79C955.111 612.021 956.389 608.507 956.389 604.354L949.148 602.651C949.148 607.655 947.125 611.382 944.25 611.382C942.12 611.382 940.63 609.785 940.63 607.655L940.63 582.526C940.63 577.627 938.713 573.581 934.986 570.387C931.259 567.192 926.467 565.595 920.824 565.595C914.967 565.595 910.069 567.086 906.236 569.961C902.402 572.836 900.486 576.456 900.486 580.822C900.486 582.1 900.592 583.164 900.912 584.016L908.898 582.419C908.791 581.993 908.685 581.567 908.685 581.035C908.685 576.669 913.477 573.368 920.185 573.368C927.106 573.368 932.111 577.734 932.111 583.59V587.424C924.231 588.276 918.694 589.021 915.393 589.766C905.171 591.896 899.102 597.327 899.102 605.526C899.102 613.512 905.49 618.836 915.287 618.836C922.208 618.836 927.852 616.28 932.324 611.063C933.282 615.642 937.755 618.836 943.398 618.836ZM916.245 611.489C911.24 611.489 907.94 608.72 907.94 604.567C907.94 601.16 910.602 598.072 915.18 596.794C918.694 595.836 924.338 594.877 932.111 593.919V603.29C928.384 608.401 922.528 611.489 916.245 611.489Z" fill="black"/>
<path d="M1007.57 609.891H986.801L986.801 586.891C986.801 578.479 992.232 573.262 1000.43 573.262C1005.22 573.262 1008.74 574.646 1010.87 577.414L1017.15 572.09C1014.06 568.257 1008.2 565.595 1001.92 565.595C995.426 565.595 990.315 568.044 986.588 573.049C986.695 571.664 986.801 569.535 986.801 566.66L965.292 566.66V574.539L978.389 574.539L978.389 609.891L962.843 609.891V617.771L1007.57 617.771V609.891Z" fill="black"/>
<path d="M1043.3 605.952C1040.43 602.438 1038.94 597.859 1038.94 592.215C1038.94 586.572 1040.43 582.1 1043.3 578.586C1046.18 575.072 1049.8 573.262 1053.95 573.262C1058.1 573.262 1061.72 575.072 1064.6 578.586C1067.47 582.1 1068.96 586.572 1068.96 592.215C1068.96 597.859 1067.47 602.438 1064.6 605.952C1061.72 609.466 1058.1 611.169 1053.95 611.169C1049.8 611.169 1046.18 609.466 1043.3 605.952ZM1040 617.771C1040 615.429 1039.89 613.086 1039.79 610.85C1043.94 616.174 1049.26 618.836 1055.97 618.836C1062.26 618.836 1067.37 616.493 1071.52 611.702C1075.67 606.91 1077.7 600.415 1077.7 592.215C1077.7 584.016 1075.67 577.627 1071.52 572.836C1067.37 568.044 1062.26 565.595 1055.97 565.595C1049.37 565.595 1043.94 568.257 1039.79 573.475C1039.89 571.877 1040 569.641 1040 566.66H1031.48C1031.59 573.794 1031.59 585.614 1031.59 602.331C1031.59 619.049 1031.59 630.868 1031.48 638.003H1040V617.771Z" fill="black"/>
<path d="M471.414 442.499L1119.73 442.499V503.75L471.414 503.75L471.414 442.499Z" fill="black"/>
<path d="M553.822 459.461L523.547 459.461V463.923H536.272V489.615L541.097 489.615V463.923H553.822V459.461Z" fill="white"/>
<path d="M588.295 489.615V485.152H570.202V476.528H583.711V472.065H570.202V463.923H588.053V459.461L565.377 459.461V489.615L588.295 489.615Z" fill="white"/>
<path d="M626.386 489.615L613.782 473.995L624.878 459.461H619.631L611.007 470.497L602.082 459.461L596.292 459.461L607.449 473.392L595.327 489.615H600.755L610.284 477.01L620.355 489.615H626.386Z" fill="white"/>
<path d="M659.532 489.615V459.461H654.707V471.703H639.63V459.461H634.806V489.615H639.63V476.166H654.707V489.615H659.532Z" fill="white"/>
<path d="M683.33 490.218C687.793 490.218 691.412 488.77 694.126 485.815C696.9 482.86 698.287 479.061 698.287 474.296C698.287 469.653 696.9 465.974 694.126 463.139C691.412 460.305 687.793 458.857 683.33 458.857C678.807 458.857 675.189 460.305 672.475 463.139C669.761 465.974 668.374 469.653 668.374 474.296C668.374 479.061 669.761 482.921 672.475 485.876C675.189 488.77 678.807 490.218 683.33 490.218ZM693.281 474.296C693.281 477.734 692.377 480.448 690.507 482.559C688.698 484.669 686.286 485.695 683.33 485.695C680.375 485.695 677.963 484.669 676.093 482.559C674.284 480.448 673.38 477.734 673.38 474.296C673.38 467.723 677.36 463.381 683.33 463.381C689.301 463.381 693.281 467.783 693.281 474.296Z" fill="white"/>
<path d="M730.347 476.95V472.125L708.636 472.125V476.95L730.347 476.95Z" fill="white"/>
<path d="M758.066 485.634C765.966 484.971 770.55 480.81 770.55 474.296C770.55 468.024 766.027 464.104 758.066 463.441V459.461L753.241 459.461V463.441C745.28 464.104 740.757 468.024 740.757 474.296C740.757 480.81 745.341 484.971 753.241 485.634V489.615L758.066 489.615V485.634ZM766.147 474.296C766.147 478.397 763.192 480.991 758.066 481.654V467.421C763.192 468.085 766.147 470.437 766.147 474.296ZM745.16 474.296C745.16 470.437 748.115 468.085 753.241 467.421V481.654C748.115 480.991 745.16 478.397 745.16 474.296Z" fill="white"/>
<path d="M805.264 489.615V485.152L787.171 485.152V476.528L800.68 476.528V472.065H787.171V463.923H805.023V459.461L782.347 459.461V489.615L805.264 489.615Z" fill="white"/>
<path d="M838.711 479C837.324 483.162 833.766 485.634 829.183 485.634C823.152 485.634 819.172 481.051 819.172 474.296C819.172 467.783 823.152 463.441 829.183 463.441C834.309 463.441 838.108 466.456 839.134 471.221L843.596 469.653C841.908 462.958 836.48 458.857 829.183 458.857C824.66 458.857 821.041 460.305 818.327 463.139C815.613 465.974 814.226 469.653 814.226 474.296C814.226 479.061 815.613 482.921 818.327 485.876C821.041 488.77 824.66 490.218 829.183 490.218C835.756 490.218 840.883 486.72 842.993 480.93L838.711 479Z" fill="white"/>
<path d="M879.276 459.461L849.001 459.461V463.923H861.726V489.615H866.55V463.923L879.276 463.923V459.461Z" fill="white"/>
<path d="M912.542 489.615V459.461L904.099 459.461L892.701 485.634V459.461H888.057V489.615H895.716L907.899 461.451V489.615L912.542 489.615Z" fill="white"/>
<path d="M938.753 463.622C941.406 463.622 943.216 465.13 943.216 467.783C943.216 470.256 941.406 472.125 938.693 472.125H930.189V463.622H938.753ZM939.477 476.226C942.613 476.226 944.904 477.674 944.904 480.749C944.904 484.066 942.19 485.453 938.813 485.453H930.189V476.226H939.477ZM939.899 489.615C945.869 489.615 949.91 486.358 949.91 480.81C949.91 477.432 948.04 475.141 944.301 473.935C946.895 472.427 948.221 470.135 948.221 467.059C948.221 462.476 944.543 459.461 939.718 459.461H925.364V489.615H939.899Z" fill="white"/>
<path d="M967.617 477.493L972.261 464.165L977.206 477.493L967.617 477.493ZM986.614 489.615L975.578 459.461L969.668 459.461L958.631 489.615H963.395L966.049 481.956L978.895 481.956L981.729 489.615H986.614Z" fill="white"/>
<path d="M1021.69 489.615V459.461L1001.43 459.461C1001.43 462.777 1001.43 465.491 1001.37 467.542L1001.19 473.512C1001 477.372 1000.58 479.121 1000.04 481.051C999.014 483.946 997.627 484.549 995.034 485.876L997.084 490.519C999.798 489.434 1001.73 488.107 1002.93 486.479C1004.14 484.85 1004.98 482.378 1005.41 479.181C1005.89 475.925 1006.19 470.859 1006.25 463.923H1016.87V489.615H1021.69Z" fill="white"/>
<path d="M1047.78 474.538C1051.88 474.538 1054.66 476.347 1054.66 480.026C1054.66 483.885 1052.06 485.453 1048.62 485.453H1039.52V474.538H1047.78ZM1049.71 489.615C1055.74 489.615 1059.66 486.177 1059.66 479.724C1059.66 476.528 1058.58 474.176 1056.4 472.668C1054.29 471.16 1051.64 470.376 1048.56 470.376H1039.52V459.461H1034.69V489.615L1049.71 489.615Z" fill="white"/>
<path d="M532.891 704.984C531.851 708.105 529.182 709.96 525.745 709.96C521.222 709.96 518.236 706.522 518.236 701.456C518.236 696.571 521.222 693.315 525.745 693.315C529.589 693.315 532.439 695.576 533.208 699.149L536.555 697.973C535.289 692.953 531.218 689.877 525.745 689.877C522.352 689.877 519.638 690.963 517.603 693.088C515.568 695.214 514.527 697.973 514.527 701.456C514.527 705.029 515.568 707.924 517.603 710.141C519.638 712.312 522.352 713.397 525.745 713.397C530.675 713.397 534.52 710.774 536.103 706.432L532.891 704.984Z" fill="black"/>
<path d="M563.314 690.329H540.608V693.676H550.152V712.945H553.77V693.676H563.314V690.329Z" fill="black"/>
<path d="M575.328 703.853L578.811 693.857L582.52 703.853L575.328 703.853ZM589.576 712.945L581.299 690.329H576.866L568.589 712.945H572.162L574.152 707.201H583.786L585.912 712.945H589.576Z" fill="black"/>
<path d="M600.504 709.598C601.409 708.467 601.997 706.703 602.314 704.396C602.63 702.044 602.856 698.471 602.902 693.676H610.591V709.598L600.504 709.598ZM614.209 690.329H599.283C599.283 693.269 599.283 695.486 599.238 697.069C599.238 698.652 599.193 700.235 599.057 701.818C598.967 703.401 598.831 704.532 598.695 705.21C598.379 706.522 597.655 708.105 596.795 708.693C596.388 709.01 595.8 709.281 595.122 709.598V718.373H598.379V712.945L614.209 712.945V718.373H617.466V709.598H614.209V690.329Z" fill="black"/>
<path d="M642.507 712.945V690.329L636.174 690.329L627.626 709.96V690.329H624.143V712.945H629.887L639.024 691.822V712.945H642.507Z" fill="black"/>
<path d="M660.446 713.397C663.793 713.397 666.507 712.312 668.542 710.095C670.623 707.879 671.663 705.029 671.663 701.456C671.663 697.973 670.623 695.214 668.542 693.088C666.507 690.963 663.793 689.877 660.446 689.877C657.053 689.877 654.34 690.963 652.304 693.088C650.269 695.214 649.228 697.973 649.228 701.456C649.228 705.029 650.269 707.924 652.304 710.141C654.34 712.312 657.053 713.397 660.446 713.397ZM667.909 701.456C667.909 704.034 667.231 706.07 665.828 707.653C664.471 709.236 662.662 710.005 660.446 710.005C658.229 710.005 656.42 709.236 655.018 707.653C653.661 706.07 652.983 704.034 652.983 701.456C652.983 696.526 655.968 693.269 660.446 693.269C664.924 693.269 667.909 696.571 667.909 701.456Z" fill="black"/>
<path d="M696.839 712.945V690.329H693.221V699.511H681.913V690.329H678.295V712.945H681.913V702.858H693.221V712.945H696.839Z" fill="black"/>
<path d="M743.528 693.45C745.518 693.45 746.875 694.581 746.875 696.571C746.875 698.426 745.518 699.828 743.483 699.828H737.105V693.45H743.528ZM744.071 702.904C746.423 702.904 748.142 703.989 748.142 706.296C748.142 708.784 746.106 709.824 743.573 709.824H737.105V702.904H744.071ZM744.387 712.945C748.865 712.945 751.896 710.502 751.896 706.341C751.896 703.808 750.494 702.089 747.689 701.185C749.634 700.054 750.629 698.335 750.629 696.028C750.629 692.591 747.87 690.329 744.252 690.329H733.487V712.945H744.387Z" fill="black"/>
<path d="M779.017 712.945V709.598H765.448V703.13H775.579V699.783H765.448V693.676L778.836 693.676V690.329L761.829 690.329V712.945H779.017Z" fill="black"/>
<path d="M805.324 712.945V690.329H801.705V699.511H790.398V690.329H786.779V712.945H790.398V702.858H801.705V712.945H805.324Z" fill="black"/>
<path d="M833.259 712.945V709.598H819.69V703.13L829.822 703.13V699.783L819.69 699.783V693.676H833.078V690.329L816.071 690.329V712.945H833.259Z" fill="black"/>
<path d="M853.415 693.676C855.812 693.676 857.531 695.259 857.531 697.612C857.531 700.325 855.948 701.773 853.37 701.773H846.133V693.676H853.415ZM854.093 705.12C856.038 705.12 857.757 704.441 859.159 703.039C860.561 701.637 861.285 699.783 861.285 697.385C861.285 695.35 860.607 693.631 859.295 692.319C857.983 691.008 856.31 690.329 854.229 690.329H842.514V712.945H846.133V705.12H854.093Z" fill="black"/>
<path d="M873.661 703.853L877.144 693.857L880.853 703.853H873.661ZM887.909 712.945L879.631 690.329H875.199L866.921 712.945H870.495L872.485 707.201H882.119L884.245 712.945H887.909Z" fill="black"/>
<path d="M900.284 720.272C905.215 718.961 908.109 715.342 908.109 710.683C908.109 707.608 906.572 705.572 904.039 705.572C901.732 705.572 900.104 707.201 900.104 709.507C900.104 711.633 901.46 713.352 904.31 713.397C903.903 715.523 902.41 716.473 899.38 717.378L900.284 720.272Z" fill="black"/>
<path d="M969.227 712.945V709.598H953.984C954.843 708.693 955.431 708.286 956.879 707.608C957.964 707.11 958.1 707.065 959.502 706.522L960.904 705.979C963.211 705.029 965.066 703.944 966.377 702.677C967.689 701.411 968.367 699.647 968.367 697.385C968.367 695.169 967.553 693.405 965.925 692.003C964.297 690.601 962.261 689.877 959.864 689.877C957.06 689.877 954.753 690.782 952.944 692.591C951.134 694.355 950.23 696.571 950.23 699.24H953.622C953.622 695.847 956.019 693.541 959.683 693.541C962.623 693.541 964.749 694.988 964.749 697.657C964.704 699.104 964.025 700.325 962.714 701.366C961.945 701.908 960.226 702.768 957.512 703.899C955.115 704.849 953.848 705.527 952.084 706.929C950.411 708.331 949.506 710.367 949.506 712.945H969.227Z" fill="black"/>
<path d="M1013.65 713.397C1019.44 713.397 1023.38 710.864 1023.38 706.386C1023.38 703.853 1021.75 701.908 1019.08 701.049C1020.94 700.009 1022.11 698.019 1022.11 696.255C1022.11 692.41 1018.72 689.877 1013.7 689.877C1009.95 689.877 1007.05 691.279 1005.01 694.129L1007.37 696.571C1008.72 694.4 1010.67 693.315 1013.2 693.315C1016.28 693.315 1018.36 694.671 1018.36 696.662C1018.36 698.607 1016.82 699.828 1014.83 699.828H1009.99V702.904H1015.06C1017.77 702.904 1019.62 704.306 1019.62 706.341C1019.62 708.738 1017.23 709.914 1013.65 709.914C1010.08 709.914 1007.55 708.603 1006.06 705.979L1003.16 708.15C1005.29 711.633 1008.77 713.397 1013.65 713.397Z" fill="black"/>
<path d="M1036.39 703.853L1039.87 693.857L1043.58 703.853H1036.39ZM1050.64 712.945L1042.36 690.329H1037.93L1029.65 712.945H1033.22L1035.21 707.201L1044.85 707.201L1046.97 712.945H1050.64Z" fill="black"/>
<path d="M1076.94 712.945V690.329L1061.74 690.329C1061.74 692.817 1061.74 694.852 1061.7 696.39L1061.56 700.868C1061.43 703.763 1061.11 705.075 1060.7 706.522C1059.94 708.693 1058.9 709.146 1056.95 710.141L1058.49 713.623C1060.52 712.809 1061.97 711.814 1062.88 710.593C1063.78 709.372 1064.41 707.517 1064.73 705.12C1065.09 702.677 1065.32 698.878 1065.36 693.676H1073.32V712.945H1076.94Z" fill="black"/>
<path d="M538.241 408.881L539.759 398.716H489.13C493.544 388.964 502.787 382.919 516.996 376.189C525.412 371.93 530.792 368.771 537 363.276C543.207 357.644 546.518 349.952 546.518 341.023C546.518 334.292 544.035 328.798 539.207 324.539C534.378 320.281 528.309 318.221 520.859 318.221C511.616 318.221 503.615 321.243 496.717 327.287C489.82 333.331 485.681 340.474 484.302 348.716H496.166C496.993 343.358 499.614 338.688 504.167 334.979C508.719 331.27 513.961 329.347 519.755 329.347C523.756 329.347 527.481 330.446 530.654 332.644C533.827 334.842 535.482 338.139 535.482 342.397C535.482 347.754 532.861 352.699 529.688 356.133C528.171 357.782 525.963 359.567 522.928 361.491C520.031 363.414 517.548 364.925 515.479 366.024C513.41 367.123 510.513 368.634 506.788 370.419C490.096 378.661 478.37 389.788 475.473 408.881H538.241Z" fill="black"/>
<path d="M638.341 319.594H570.192L566.33 344.32H577.09L579.435 329.759H621.511C607.853 338.963 597.645 349.952 590.609 362.452C583.574 374.952 578.607 390.475 575.71 408.881H586.885C589.782 390.612 594.886 375.364 602.473 363.139C610.061 350.776 621.511 339.65 636.686 329.759L638.341 319.594Z" fill="black"/>
<path d="M680.639 406.821C685.467 402.013 685.467 394.458 680.639 389.925C676.086 385.117 668.499 385.117 663.67 389.925C659.118 394.458 659.118 402.013 663.67 406.821C668.499 411.354 676.086 411.354 680.639 406.821Z" fill="black"/>
<path d="M788.602 398.716H765.701L778.255 319.594H767.495L735.628 336.902L741.698 344.869L765.564 331.957L754.941 398.716H726.523L724.867 408.881H786.946L788.602 398.716Z" fill="black"/>
<path d="M869.112 408.881L870.63 398.716H820.001C824.415 388.964 833.658 382.919 847.867 376.189C856.283 371.93 861.663 368.771 867.871 363.276C874.078 357.644 877.389 349.952 877.389 341.023C877.389 334.292 874.906 328.798 870.078 324.539C865.249 320.281 859.18 318.221 851.73 318.221C842.487 318.221 834.486 321.243 827.588 327.287C820.691 333.331 816.552 340.474 815.173 348.716H827.037C827.864 343.358 830.485 338.688 835.038 334.979C839.59 331.27 844.832 329.347 850.626 329.347C854.627 329.347 858.352 330.446 861.525 332.644C864.698 334.842 866.353 338.139 866.353 342.397C866.353 347.754 863.732 352.699 860.559 356.133C859.042 357.782 856.834 359.567 853.799 361.491C850.902 363.414 848.419 364.925 846.35 366.024C844.281 367.123 841.384 368.634 837.659 370.419C820.967 378.661 809.241 389.788 806.344 408.881H869.112Z" fill="black"/>
<path d="M928.792 406.821C933.62 402.013 933.62 394.458 928.792 389.925C924.239 385.117 916.652 385.117 911.824 389.925C907.271 394.458 907.271 402.013 911.824 406.821C916.652 411.354 924.239 411.354 928.792 406.821Z" fill="black"/>
<path d="M1034.55 408.881L1036.07 398.716H985.436C989.851 388.964 999.094 382.919 1013.3 376.189C1021.72 371.93 1027.1 368.771 1033.31 363.276C1039.51 357.644 1042.82 349.952 1042.82 341.023C1042.82 334.292 1040.34 328.798 1035.51 324.539C1030.68 320.281 1024.62 318.221 1017.17 318.221C1007.92 318.221 999.922 321.243 993.024 327.287C986.126 333.331 981.988 340.474 980.608 348.716H992.472C993.3 343.358 995.921 338.688 1000.47 334.979C1005.03 331.27 1010.27 329.347 1016.06 329.347C1020.06 329.347 1023.79 330.446 1026.96 332.644C1030.13 334.842 1031.79 338.139 1031.79 342.397C1031.79 347.754 1029.17 352.699 1025.99 356.133C1024.48 357.782 1022.27 359.567 1019.23 361.491C1016.34 363.414 1013.85 364.925 1011.79 366.024C1009.72 367.123 1006.82 368.634 1003.09 370.419C986.402 378.661 974.676 389.788 971.779 408.881H1034.55Z" fill="black"/>
<path d="M1119.47 398.716H1096.57L1109.13 319.594H1098.37L1066.5 336.902L1072.57 344.869L1096.43 331.957L1085.81 398.716H1057.39L1055.74 408.881H1117.82L1119.47 398.716Z" fill="black"/>
<path d="M169.473 745.221L169.473 707.638L361.538 707.638L361.538 745.221L169.473 745.221Z" fill="black"/>
<path d="M169.473 689.545L169.473 677.017L361.538 677.017L361.538 689.545L169.473 689.545Z" fill="black"/>
<path d="M169.473 617.156L169.473 587.925L361.538 587.925L361.538 617.156L169.473 617.156Z" fill="black"/>
<path d="M169.473 560.092L169.473 536.428L361.538 536.428L361.538 560.092L169.473 560.092Z" fill="black"/>
<path d="M169.473 444.554L169.473 427.85L361.538 427.85L361.538 444.554L169.473 444.554Z" fill="black"/>
<path d="M169.473 496.059L169.473 461.26L361.538 461.26L361.538 496.059L169.473 496.059Z" fill="black"/>
<path d="M169.473 384.683L169.473 344.041L361.538 344.041L361.538 384.683L169.473 384.683Z" fill="black"/>
<path d="M169.473 414.839L169.473 401.729L361.538 401.729L361.538 414.839L169.473 414.839Z" fill="black"/>
<path d="M169.473 326.24L169.473 308.145L361.538 308.145L361.538 326.24L169.473 326.24Z" fill="black"/>
<path d="M169.473 640.825L169.473 635.257L361.538 635.257L361.538 640.825L169.473 640.825Z" fill="black"/>
<path d="M169.473 528.073L169.473 522.505L361.538 522.505L361.538 528.073L169.473 528.073Z" fill="black"/>
<path d="M169.473 299.788L169.473 294.22L361.538 294.22L361.538 299.788L169.473 299.788Z" fill="black"/>
<path d="M415.974 730.69L400.782 723.903L426.639 728.036L426.639 724.729L398.344 720.248L398.344 726.339L413.58 732.996L398.344 734.823L398.344 740.74L426.639 745.221L426.639 741.914L400.608 737.781L415.974 735.997L415.974 730.69Z" fill="black"/>
<path d="M427.075 707.431C427.075 703.603 425.246 700.209 422.243 697.947L420.545 700.383C422.591 701.819 423.766 704.473 423.766 707.257C423.766 710.694 421.633 713.087 418.499 713.478C418.281 704.864 416.975 700.34 415.06 698.251C413.667 696.729 412.361 696.337 410.75 696.337C407.486 696.337 405.309 699.426 405.309 704.081C405.309 707.779 406.571 710.825 409.14 713.261C411.708 715.697 414.668 716.915 418.107 716.915C420.806 716.915 422.983 716.045 424.637 714.305C426.248 712.565 427.075 710.259 427.075 707.431ZM408.748 704.603C408.748 701.949 409.575 700.253 411.099 700.253C411.926 700.253 412.622 700.557 413.188 701.166C413.754 701.732 414.277 703.037 414.755 705.082C415.234 707.083 415.495 709.824 415.539 713.261C411.665 712.391 408.748 709.128 408.748 704.603Z" fill="black"/>
<path d="M414.015 686.174C412.361 685.913 411.012 685.13 410.01 683.825C408.966 682.476 408.443 681.04 408.443 679.517C408.443 676.951 409.88 675.297 412.666 675.297C413.101 675.297 413.536 675.341 414.015 675.428L426.639 677.429L426.639 673.992L413.493 671.947C412.971 671.86 412.448 671.817 411.969 671.817C407.921 671.817 405.309 674.688 405.309 678.821C405.309 681.345 406.31 683.52 408.313 685.347C407.747 685.173 406.92 684.999 405.744 684.869L405.744 688.262L426.639 691.569L426.639 688.175L414.015 686.174Z" fill="black"/>
<path d="M427.075 650.908C427.075 648.254 425.334 645.774 422.243 644.556L420.545 646.992C422.678 647.732 423.941 649.08 423.941 650.516C423.941 652.648 422.112 653.736 418.456 653.736C418.107 645.339 413.972 643.077 410.01 643.077C407.094 643.077 405.309 644.991 405.309 647.601C405.309 650.299 406.571 652.387 409.053 653.866C406.571 654.519 405.309 655.911 405.309 657.999C405.309 659.652 406.049 661.088 407.573 662.35C409.096 663.611 410.925 664.525 413.101 665.134C415.278 665.7 417.541 666.004 419.936 666.004C424.463 666.004 427.075 664.307 427.075 661.349C427.075 659.217 425.769 657.434 423.2 655.998C425.769 655.128 427.075 653.431 427.075 650.908ZM408.443 648.558C408.443 647.384 409.14 646.775 410.576 646.775C411.752 646.775 412.796 647.297 413.798 648.297C414.799 649.298 415.365 650.951 415.495 653.344C411.012 652.474 408.443 650.69 408.443 648.558ZM419.37 662.872C416.801 662.872 414.407 662.437 412.1 661.61C409.793 660.74 408.617 659.652 408.617 658.347C408.617 656.955 409.967 656.259 412.709 656.259C415.278 656.259 417.759 656.694 420.11 657.521C422.417 658.347 423.592 659.391 423.592 660.696C423.592 662.132 422.199 662.872 419.37 662.872Z" fill="black"/>
<path d="M412.491 602.098L412.491 610.974L415.712 611.496L415.712 606.014L422.373 607.058C423.026 608.581 423.33 610.365 423.33 612.409C423.33 617.499 420.153 620.153 414.885 620.153C410.01 620.153 405.657 618.631 402.871 615.281C401.478 613.584 400.781 611.626 400.781 609.407C400.781 606.928 402.043 604.361 403.915 603.012L401.521 600.489C398.822 602.403 397.473 605.448 397.473 609.581C397.473 614.106 399.693 617.891 403.132 620.197C406.571 622.459 410.924 623.721 415.451 623.721C422.416 623.721 426.639 619.979 426.639 613.018C426.639 610.016 425.855 607.015 424.332 603.969L412.491 602.098Z" fill="black"/>
<path d="M413.579 587.846C410.14 587.323 408.007 584.8 408.007 581.537C408.007 579.579 408.573 578.274 409.705 577.622L407.528 574.75C405.961 575.794 404.873 578.144 404.873 580.276C404.873 583.016 405.874 585.279 407.833 587.019C406.788 586.801 405.961 586.627 405.308 586.54L405.308 595.59L408.53 596.112L408.53 590.456L426.203 593.24L426.203 589.847L413.579 587.846Z" fill="black"/>
<path d="M413.928 550.839C411.185 550.839 409.009 551.666 407.354 553.362C405.7 555.016 404.873 557.191 404.873 559.932C404.873 563.369 406.135 566.153 408.617 568.328C411.098 570.504 414.058 571.591 417.41 571.591C420.196 571.591 422.416 570.765 424.114 569.112C425.812 567.415 426.639 565.24 426.639 562.499C426.639 558.931 425.376 556.103 422.808 554.015C420.24 551.883 417.28 550.839 413.928 550.839ZM417.236 568.024C414.842 568.024 412.796 567.284 411.011 565.849C409.226 564.413 408.312 562.455 408.312 559.975C408.312 556.625 410.75 554.363 414.276 554.363C416.67 554.363 418.76 555.059 420.544 556.495C422.329 557.931 423.2 559.845 423.2 562.325C423.2 565.762 420.762 568.024 417.236 568.024Z" fill="black"/>
<path d="M417.236 526.449C416.104 526.449 415.103 526.58 414.232 526.884L415.103 530.147C415.887 529.973 416.627 529.886 417.367 529.886C420.98 529.886 423.2 531.54 423.2 534.976C423.2 537.282 421.981 538.631 419.761 538.631C419.543 538.631 419.195 538.587 418.673 538.544L408.53 536.934L408.53 524.753L405.308 524.274L405.308 536.412L398.735 535.368L399.214 538.849L405.308 539.806L405.308 544.2L408.53 544.722L408.53 540.328L418.803 541.937C419.369 542.024 419.935 542.068 420.457 542.068C424.332 542.068 426.639 539.632 426.639 535.064C426.639 532.584 425.768 530.495 423.983 528.886C422.199 527.276 419.978 526.449 417.236 526.449Z" fill="black"/>
<path d="M426.639 509.195C426.639 505.366 424.81 501.973 421.807 499.71L420.109 502.147C422.155 503.582 423.33 506.236 423.33 509.021C423.33 512.457 421.197 514.85 418.063 515.242C417.845 506.628 416.539 502.103 414.624 500.015C413.231 498.492 411.925 498.101 410.314 498.101C407.05 498.101 404.873 501.189 404.873 505.845C404.873 509.543 406.135 512.588 408.704 515.024C411.272 517.461 414.232 518.679 417.671 518.679C420.37 518.679 422.547 517.809 424.201 516.068C425.812 514.328 426.639 512.022 426.639 509.195ZM408.312 506.367C408.312 503.713 409.139 502.016 410.663 502.016C411.49 502.016 412.186 502.321 412.752 502.93C413.318 503.495 413.841 504.8 414.319 506.845C414.798 508.847 415.059 511.587 415.103 515.024C411.229 514.154 408.312 510.891 408.312 506.367Z" fill="black"/>
<path d="M407.657 471.759C405.785 474.195 404.871 477.197 404.871 480.808C404.871 486.594 407.57 489.292 411.357 489.292C414.1 489.292 415.972 487.421 416.973 483.679C417.017 483.462 417.104 483.114 417.234 482.722C417.844 480.416 418.322 478.937 418.714 478.198C419.106 477.458 419.672 477.11 420.456 477.11C422.414 477.11 423.416 478.807 423.416 482.2C423.416 485.246 422.545 487.682 420.804 489.466L423.372 492.511C425.549 490.379 426.637 487.029 426.637 482.418C426.637 476.457 423.807 473.368 419.977 473.368C416.886 473.368 415.493 475.544 414.318 479.851L414.1 480.721C413.447 483.288 413.229 484.201 412.402 485.071C412.01 485.507 411.488 485.724 410.879 485.724C409.007 485.724 408.093 484.245 408.093 481.33C408.093 478.372 408.833 476.022 410.356 474.239L407.657 471.759Z" fill="black"/>
<path d="M405.307 446.064L405.307 449.457C406.221 449.631 407.222 449.762 408.223 449.849L408.31 449.849C406.003 451.241 404.871 453.373 404.871 456.288C404.871 459.159 406.221 461.595 408.92 463.553C411.575 465.511 414.709 466.468 418.235 466.468C423.503 466.468 426.637 463.423 426.637 458.854C426.637 456.375 425.592 454.156 423.546 452.285C425.244 452.59 426.158 452.764 426.202 452.764L434.473 454.069L434.473 450.675L405.307 446.064ZM413.969 450.588C416.494 450.588 418.714 451.328 420.63 452.764C422.545 454.199 423.503 455.94 423.503 457.984C423.503 460.899 421.152 462.901 417.495 462.901C414.971 462.901 412.75 462.204 410.879 460.769C408.963 459.333 408.006 457.593 408.006 455.548C408.006 452.633 410.356 450.588 413.969 450.588Z" fill="black"/>
<path d="M426.202 422.936L405.307 419.629L405.307 423.066L418.148 425.111C419.759 425.372 421.021 426.112 422.023 427.373C423.024 428.635 423.503 429.984 423.503 431.463C423.503 433.899 422.066 435.509 419.411 435.509C418.845 435.509 418.453 435.465 418.148 435.422L405.307 433.377L405.307 436.858L418.671 438.989C419.193 439.076 419.672 439.12 420.151 439.12C424.112 439.12 426.637 436.248 426.637 432.202C426.637 429.723 425.679 427.634 423.764 425.938C424.417 426.112 425.244 426.286 426.202 426.416L426.202 422.936Z" fill="black"/>
<path d="M426.637 404.028C426.637 400.199 424.809 396.806 421.805 394.543L420.107 396.98C422.153 398.415 423.329 401.069 423.329 403.854C423.329 407.291 421.196 409.683 418.061 410.075C417.844 401.461 416.538 396.936 414.622 394.848C413.229 393.325 411.923 392.934 410.313 392.934C407.048 392.934 404.871 396.023 404.871 400.678C404.871 404.376 406.134 407.421 408.702 409.857C411.27 412.294 414.231 413.512 417.67 413.512C420.368 413.512 422.545 412.642 424.199 410.902C425.81 409.161 426.637 406.856 426.637 404.028ZM408.31 401.2C408.31 398.546 409.137 396.849 410.661 396.849C411.488 396.849 412.185 397.154 412.75 397.763C413.316 398.328 413.839 399.634 414.318 401.678C414.796 403.68 415.058 406.421 415.101 409.857C411.227 408.987 408.31 405.724 408.31 401.2Z" fill="black"/>
<path d="M401.122 357.571C401.122 355.091 402.689 353.568 405.17 353.568C406.781 353.568 408.174 354.09 409.349 355.178C410.525 356.222 411.091 357.571 411.091 359.224L411.091 366.229L401.122 364.662L401.122 357.571ZM414.312 358.615C414.312 356.222 413.354 354.177 411.482 352.481C409.61 350.784 407.347 349.914 404.691 349.914C400.643 349.914 397.9 352.568 397.9 356.744L397.9 367.577L426.196 372.058L426.196 368.621L414.312 366.751L414.312 358.615Z" fill="black"/>
<path d="M413.572 337.227C410.133 336.705 408 334.182 408 330.919C408 328.961 408.566 327.656 409.698 327.003L407.521 324.132C405.954 325.176 404.865 327.525 404.865 329.657C404.865 332.398 405.867 334.66 407.826 336.401C406.781 336.183 405.954 336.009 405.301 335.922L405.301 344.971L408.522 345.493L408.522 339.837L426.196 342.622L426.196 339.228L413.572 337.227Z" fill="black"/>
<path d="M413.92 300.221C411.178 300.221 409.001 301.047 407.347 302.744C405.693 304.397 404.865 306.573 404.865 309.313C404.865 312.75 406.128 315.535 408.609 317.71C411.091 319.885 414.051 320.973 417.403 320.973C420.189 320.973 422.409 320.146 424.106 318.493C425.804 316.796 426.631 314.621 426.631 311.88C426.631 308.313 425.369 305.485 422.801 303.397C420.232 301.265 417.272 300.221 413.92 300.221ZM417.228 317.405C414.834 317.405 412.788 316.666 411.003 315.23C409.219 313.795 408.304 311.837 408.304 309.357C408.304 306.007 410.742 303.745 414.268 303.745C416.663 303.745 418.752 304.441 420.537 305.876C422.322 307.312 423.192 309.226 423.192 311.706C423.192 315.143 420.755 317.405 417.228 317.405Z" fill="black"/>
<g filter="url(#filter0_d_173:5110)">
<path d="M126.892 709.512L32.9238 218.422L1018.05 29.9217L1112.02 521.012L126.892 709.512Z" fill="black" stroke="white" stroke-width="5"/>
<path fill-rule="evenodd" clip-rule="evenodd" d="M1019.3 207.397L388.091 328.177L441.574 607.686L1072.78 486.907L1019.3 207.397ZM382.578 324.435L437.832 613.2L1078.3 490.649L1023.04 201.884L382.578 324.435Z" fill="white"/>
<path fill-rule="evenodd" clip-rule="evenodd" d="M1064.85 430.381L430.862 551.692L429.977 547.064L1063.96 425.754L1064.85 430.381Z" fill="white"/>
<path d="M498.77 411.144L445.432 421.35L446.913 429.089L469.399 424.786L480.926 485.027L489.292 483.426L477.766 423.185L500.251 418.883L498.77 411.144Z" fill="white"/>
<path d="M542.024 410.781C544.984 406.42 543.884 400.668 539.563 397.917C535.411 394.917 529.659 396.018 526.699 400.379C523.908 404.491 525.009 410.243 529.16 413.243C533.481 415.994 539.233 414.893 542.024 410.781ZM573.635 459.265L553.973 463.027L550.651 445.666C548.409 433.953 546.809 425.586 545.953 420.546L516.25 426.229L517.731 433.968L539.067 429.886L545.711 464.608L520.61 469.411L522.091 477.15L575.116 467.004L573.635 459.265Z" fill="white"/>
<path d="M587.992 433.1C586.411 424.838 588.254 419.173 592.751 418.313C596.098 417.672 598.795 419.867 599.735 424.782L606.659 460.969L614.399 459.488L608.595 429.158C607.014 420.896 608.962 415.211 613.564 414.33C616.806 413.71 619.398 415.924 620.338 420.84L627.263 457.026L635.002 455.545L627.958 418.732C626.297 410.051 620.49 405.199 614.11 406.42C609.508 407.301 606.413 410.386 604.739 415.802C602.08 411.541 597.795 409.542 593.298 410.402C589.637 411.103 586.82 413.377 584.866 417.328C584.79 416.367 584.53 415.007 584.19 413.229L576.346 414.73C577.411 419.73 579.012 428.097 581.253 439.811C583.495 451.524 585.096 459.891 585.952 464.931L593.795 463.43L587.992 433.1Z" fill="white"/>
<path d="M651.211 422.63C650.81 413.166 655.984 406.213 665.083 404.472C674.182 402.731 681.349 407.323 684.26 416.306L651.211 422.63ZM687.798 430.265C685.915 435.721 680.26 440.164 673.672 441.424C664.05 443.265 656.087 439.043 652.777 430.245L693.565 422.44C693.558 420.707 693.323 418.909 692.943 416.921C691.522 409.496 688.08 403.975 682.723 400.338C677.365 396.702 671.277 395.481 664.374 396.802C656.949 398.223 651.343 401.789 647.473 407.625C643.707 413.441 642.502 420.177 643.963 427.811C645.424 435.446 649.135 441.241 654.991 445.216C660.847 449.191 667.582 450.395 675.008 448.975C684.734 447.113 692.301 441.329 695.168 433.083L687.798 430.265Z" fill="white"/>
<path d="M818.426 420.448L813.053 351.007L805.418 352.468L810.816 416.375L796.516 380.733L784.593 383.014L784.67 421.378L766.094 359.992L758.25 361.493L778.683 428.053L792.07 425.491L791.55 387.646L805.039 423.01L818.426 420.448Z" fill="white"/>
<path d="M880.394 409.675C884.055 408.974 886.828 407.034 888.733 403.959C890.618 400.78 891.213 397.089 890.432 393.01L883 392.697C883.941 397.613 882.654 401.653 879.83 402.194C877.739 402.594 875.974 401.305 875.574 399.214L870.851 374.532C869.931 369.721 867.288 366.107 863.027 363.67C858.766 361.232 853.759 360.564 848.216 361.625C842.464 362.725 837.934 365.11 834.709 368.654C831.484 372.199 830.282 376.115 831.102 380.403C831.343 381.658 831.647 382.684 832.121 383.46L839.665 380.391C839.48 379.992 839.296 379.594 839.196 379.071C838.375 374.783 842.461 370.64 849.05 369.38C855.848 368.079 861.584 371.426 862.684 377.178L863.405 380.943C855.826 383.261 850.527 385.034 847.425 386.386C837.785 390.399 832.845 396.873 834.386 404.927C835.887 412.77 843.162 416.799 852.784 414.958C859.582 413.657 864.645 410.086 868.057 404.121C869.858 408.438 874.851 410.735 880.394 409.675ZM852.344 407.561C847.429 408.502 843.667 406.403 842.886 402.324C842.246 398.978 844.28 395.444 848.537 393.329C851.808 391.727 857.171 389.725 864.626 387.323L866.387 396.527C863.687 402.247 858.515 406.381 852.344 407.561Z" fill="white"/>
<path d="M941.737 388.83L921.343 392.733L917.021 370.142C915.44 361.88 919.793 355.735 927.846 354.194C932.552 353.293 936.264 353.993 938.876 356.312L944.046 349.902C940.292 346.717 934.04 345.203 927.869 346.384C921.49 347.604 916.93 350.97 914.21 356.586C914.054 355.207 913.759 353.095 913.218 350.271L892.092 354.314L893.573 362.053L906.437 359.591L913.081 394.314L897.812 397.235L899.292 404.975L943.218 396.57L941.737 388.83Z" fill="white"/>
<path d="M976.096 378.244C972.612 375.333 970.287 371.117 969.227 365.574C968.166 360.031 968.79 355.358 970.953 351.366C973.117 347.375 976.332 344.916 980.411 344.136C984.49 343.355 988.386 344.453 991.87 347.364C995.354 350.275 997.659 354.387 998.72 359.93C999.78 365.473 999.177 370.25 997.013 374.242C994.85 378.234 991.614 380.587 987.535 381.368C983.457 382.148 979.581 381.155 976.096 378.244ZM975.076 390.474C974.635 388.173 974.09 385.892 973.566 383.716C978.645 388.165 984.375 389.779 990.963 388.518C997.134 387.337 1001.71 384.076 1004.89 378.589C1008.07 373.102 1008.84 366.342 1007.3 358.289C1005.75 350.236 1002.57 344.341 997.588 340.415C992.608 336.49 987.128 335.045 980.957 336.225C974.473 337.466 969.64 341.101 966.541 347.007C966.346 345.418 966.03 343.201 965.47 340.273L957.103 341.874C958.548 348.861 960.77 360.47 963.912 376.89C967.053 393.31 969.275 404.919 970.511 411.946L978.878 410.345L975.076 390.474Z" fill="white"/>
<path d="M383.68 325.184L1020.44 203.342L1031.95 263.501L395.191 385.343L383.68 325.184Z" fill="white"/>
<path d="M467.806 326.355L438.07 332.044L438.909 336.428L451.407 334.036L456.236 359.27L460.974 358.363L456.146 333.13L468.644 330.738L467.806 326.355Z" fill="black"/>
<path d="M507.331 349.493L506.493 345.11L488.723 348.51L487.102 340.039L500.37 337.501L499.531 333.117L486.263 335.656L484.733 327.66L502.266 324.305L501.427 319.921L479.156 324.183L484.823 353.8L507.331 349.493Z" fill="black"/>
<path d="M544.744 342.334L529.429 329.362L537.596 313.001L532.443 313.987L526.047 326.447L515.206 317.285L509.519 318.373L523.096 329.959L514.239 348.171L519.57 347.151L526.56 332.981L538.821 343.468L544.744 342.334Z" fill="black"/>
<path d="M577.3 336.105L571.633 306.488L566.894 307.395L569.195 319.419L554.386 322.253L552.085 310.228L547.347 311.135L553.014 340.752L557.752 339.845L555.225 326.636L570.033 323.802L572.561 337.012L577.3 336.105Z" fill="black"/>
<path d="M600.787 332.225C605.17 331.386 608.453 329.284 610.563 325.872C612.732 322.448 613.38 318.456 612.485 313.776C611.612 309.215 609.558 305.862 606.301 303.6C603.103 301.326 599.277 300.584 594.893 301.423C590.451 302.273 587.169 304.375 585.036 307.669C582.903 310.963 582.232 314.837 583.105 319.398C584 324.077 586.088 327.608 589.309 330C592.519 332.333 596.345 333.075 600.787 332.225ZM607.569 314.717C608.215 318.093 607.836 320.929 606.397 323.353C605.016 325.766 602.84 327.227 599.937 327.782C597.035 328.338 594.473 327.784 592.24 326.062C590.066 324.329 588.667 321.833 588.021 318.457C586.786 312.001 589.879 306.988 595.744 305.866C601.608 304.744 606.344 308.32 607.569 314.717Z" fill="black"/>
<path d="M644.473 310.357L643.566 305.618L622.242 309.699L623.149 314.437L644.473 310.357Z" fill="black"/>
<path d="M673.33 313.677C680.964 311.541 684.684 306.593 683.46 300.195C682.281 294.035 677.102 291.035 669.159 291.879L668.41 287.97L663.672 288.877L664.42 292.786C656.726 294.934 653.02 299.634 654.199 305.794C655.423 312.192 660.706 315.417 668.591 314.584L669.339 318.494L674.078 317.587L673.33 313.677ZM679.136 301.023C679.907 305.051 677.492 308.153 672.581 309.768L669.907 295.789C675.066 295.477 678.411 297.232 679.136 301.023ZM658.523 304.967C657.797 301.176 660.258 298.31 665.168 296.696L667.843 310.675C662.683 310.987 659.293 308.995 658.523 304.967Z" fill="black"/>
<path d="M720.435 308.717L719.596 304.333L701.826 307.734L700.205 299.263L713.473 296.724L712.635 292.341L699.366 294.88L697.836 286.883L715.369 283.528L714.531 279.145L692.259 283.407L697.926 313.024L720.435 308.717Z" fill="black"/>
<path d="M751.291 292.005C750.711 296.353 747.681 299.451 743.179 300.312C737.256 301.445 732.485 297.692 731.216 291.057C729.991 284.66 733.085 279.647 739.008 278.514C744.043 277.551 748.342 279.798 750.244 284.285L754.333 281.906C751.416 275.649 745.314 272.641 738.147 274.012C733.704 274.862 730.422 276.964 728.289 280.258C726.157 283.552 725.486 287.426 726.358 291.987C727.254 296.666 729.342 300.197 732.562 302.589C735.772 304.922 739.598 305.664 744.041 304.814C750.497 303.578 754.875 299.179 755.86 293.096L751.291 292.005Z" fill="black"/>
<path d="M787.46 265.19L757.725 270.88L758.564 275.263L771.062 272.872L775.89 298.105L780.629 297.199L775.801 271.965L788.299 269.574L787.46 265.19Z" fill="black"/>
<path d="M825.801 288.555L820.134 258.938L811.842 260.525L805.565 288.375L800.646 262.667L796.085 263.54L801.752 293.157L809.275 291.717L815.947 261.766L821.24 289.428L825.801 288.555Z" fill="black"/>
<path d="M846.66 258.099C849.266 257.601 851.327 258.742 851.825 261.348C852.29 263.776 850.864 265.953 848.199 266.463L839.847 268.061L838.249 259.709L846.66 258.099ZM849.74 270.343C852.82 269.754 855.343 270.745 855.921 273.766C856.544 277.024 854.139 278.896 850.822 279.531L842.352 281.152L840.618 272.089L849.74 270.343ZM852.67 283.414C858.535 282.292 861.891 278.334 860.848 272.884C860.214 269.567 857.947 267.668 854.048 267.186C856.311 265.217 857.184 262.717 856.606 259.696C855.744 255.195 851.564 252.924 846.826 253.831L832.728 256.528L838.395 286.145L852.67 283.414Z" fill="black"/>
<path d="M877.617 266.299L879.673 252.335L887.035 264.496L877.617 266.299ZM898.554 274.634L882.047 247.092L876.242 248.202L871.069 279.893L875.749 278.998L876.915 270.977L889.532 268.562L893.756 275.552L898.554 274.634Z" fill="black"/>
<path d="M933.005 268.042L927.337 238.425L907.435 242.234C908.058 245.492 908.568 248.157 908.894 250.182L909.839 256.08C910.386 259.905 910.301 261.703 910.13 263.7C909.667 266.736 908.418 267.589 906.12 269.38L909.007 273.555C911.469 271.979 913.115 270.313 913.993 268.487C914.872 266.661 915.237 264.074 915.051 260.855C914.912 257.566 914.257 252.533 913.012 245.71L923.437 243.715L928.266 268.949L933.005 268.042Z" fill="black"/>
<path d="M955.796 248.331C959.824 247.56 962.889 248.816 963.58 252.429C964.306 256.22 962.053 258.247 958.677 258.893L949.733 260.605L947.681 249.883L955.796 248.331ZM960.525 262.776C966.448 261.643 969.653 257.53 968.44 251.192C967.839 248.053 966.331 245.946 963.915 244.874C961.559 243.789 958.805 243.518 955.784 244.096L946.899 245.796L944.848 235.075L940.109 235.982L945.776 265.599L960.525 262.776Z" fill="black"/>
<path d="M493.395 571.438C492.96 574.698 490.688 577.021 487.311 577.668C482.869 578.518 479.291 575.702 478.339 570.727C477.421 565.929 479.741 562.169 484.183 561.319C487.959 560.596 491.183 562.282 492.61 565.647L495.676 563.863C493.489 559.17 488.913 556.914 483.537 557.943C480.205 558.58 477.744 560.156 476.144 562.627C474.544 565.097 474.041 568.003 474.696 571.424C475.367 574.933 476.933 577.581 479.349 579.375C481.756 581.125 484.625 581.681 487.957 581.044C492.8 580.117 496.083 576.818 496.822 572.256L493.395 571.438Z" fill="white"/>
<path d="M520.522 551.326L498.221 555.594L498.85 558.881L508.223 557.087L511.845 576.013L515.399 575.333L511.777 556.407L521.151 554.614L520.522 551.326Z" fill="white"/>
<path d="M534.864 562.352L536.406 551.879L541.927 561L534.864 562.352ZM550.566 568.603L538.186 547.946L533.832 548.779L529.953 572.548L533.463 571.876L534.338 565.86L543.8 564.049L546.968 569.292L550.566 568.603Z" fill="white"/>
<path d="M560.671 563.262C561.347 561.981 561.593 560.138 561.47 557.813C561.339 555.444 560.89 551.891 560.033 547.174L567.585 545.729L570.578 561.366L560.671 563.262ZM570.51 541.761L555.85 544.566C556.403 547.454 556.819 549.631 557.072 551.194C557.37 552.749 557.623 554.313 557.787 555.893C557.996 557.465 558.075 558.601 558.069 559.293C558.005 560.641 557.592 562.332 556.858 563.071C556.518 563.458 555.991 563.835 555.384 564.274L557.033 572.892L560.232 572.28L559.212 566.949L574.761 563.974L575.781 569.305L578.979 568.693L577.33 560.074L574.132 560.686L570.51 541.761Z" fill="white"/>
<path d="M602.554 558.656L598.303 536.443L592.084 537.633L587.377 558.52L583.687 539.24L580.267 539.894L584.517 562.107L590.159 561.027L595.163 538.564L599.133 559.31L602.554 558.656Z" fill="white"/>
<path d="M620.258 555.729C623.546 555.1 626.007 553.523 627.59 550.964C629.217 548.396 629.703 545.402 629.032 541.892C628.377 538.471 626.837 535.957 624.394 534.26C621.995 532.555 619.125 531.998 615.838 532.627C612.506 533.265 610.045 534.841 608.445 537.312C606.845 539.782 606.342 542.688 606.997 546.108C607.668 549.618 609.234 552.266 611.65 554.06C614.057 555.81 616.926 556.366 620.258 555.729ZM625.344 542.598C625.829 545.13 625.545 547.257 624.465 549.075C623.43 550.885 621.798 551.98 619.621 552.397C617.444 552.813 615.522 552.398 613.848 551.107C612.217 549.807 611.168 547.935 610.684 545.403C609.757 540.561 612.077 536.801 616.475 535.959C620.874 535.118 624.426 537.8 625.344 542.598Z" fill="white"/>
<path d="M655.918 548.445L651.668 526.232L648.114 526.912L649.84 535.93L638.733 538.056L637.008 529.037L633.454 529.717L637.704 551.93L641.258 551.25L639.362 541.343L650.469 539.218L652.364 549.125L655.918 548.445Z" fill="white"/>
<path d="M698.111 520.523C700.066 520.149 701.611 521.004 701.985 522.959C702.334 524.781 701.265 526.413 699.265 526.795L693.001 527.994L691.803 521.73L698.111 520.523ZM700.421 529.706C702.731 529.264 704.623 530.007 705.057 532.273C705.524 534.716 703.721 536.12 701.233 536.596L694.88 537.812L693.58 531.015L700.421 529.706ZM702.619 539.509C707.017 538.667 709.535 535.699 708.753 531.612C708.277 529.124 706.576 527.699 703.652 527.338C705.35 525.861 706.004 523.986 705.571 521.721C704.925 518.344 701.79 516.641 698.236 517.322L687.662 519.345L691.913 541.557L702.619 539.509Z" fill="white"/>
<path d="M736.632 533.001L736.003 529.713L722.675 532.263L721.459 525.91L731.411 524.006L730.782 520.719L720.83 522.623L719.683 516.626L732.833 514.109L732.204 510.822L715.5 514.018L719.75 536.231L736.632 533.001Z" fill="white"/>
<path d="M762.47 528.057L758.22 505.844L754.666 506.524L756.391 515.542L745.285 517.667L743.559 508.649L740.005 509.329L744.255 531.542L747.809 530.862L745.914 520.955L757.02 518.83L758.916 528.737L762.47 528.057Z" fill="white"/>
<path d="M789.907 522.807L789.278 519.519L775.951 522.069L774.735 515.716L784.686 513.812L784.057 510.525L774.106 512.429L772.959 506.431L786.108 503.915L785.479 500.628L768.775 503.824L773.026 526.037L789.907 522.807Z" fill="white"/>
<path d="M806.083 500.093C808.437 499.643 810.423 500.875 810.865 503.185C811.375 505.85 810.092 507.569 807.56 508.054L800.452 509.414L798.93 501.462L806.083 500.093ZM808.9 511.205C810.81 510.84 812.371 509.851 813.484 508.21C814.598 506.569 814.96 504.612 814.51 502.257C814.127 500.258 813.138 498.697 811.603 497.656C810.068 496.614 808.297 496.262 806.253 496.653L794.747 498.855L798.997 521.067L802.551 520.387L801.081 512.702L808.9 511.205Z" fill="white"/>
<path d="M827.88 506.284L829.422 495.812L834.944 504.933L827.88 506.284ZM843.583 512.536L831.203 491.879L826.849 492.712L822.97 516.48L826.479 515.809L827.354 509.793L836.817 507.982L839.985 513.224L843.583 512.536Z" fill="white"/>
<path d="M857.115 517.407C861.711 515.192 863.874 511.094 862.999 506.518C862.421 503.497 860.528 501.787 858.04 502.263C855.774 502.697 854.481 504.602 854.914 506.868C855.314 508.956 856.97 510.389 859.777 509.898C859.777 512.062 858.489 513.276 855.683 514.734L857.115 517.407Z" fill="white"/>
<path d="M923.452 497.253L922.823 493.966L907.852 496.831C908.526 495.781 909.027 495.27 910.321 494.332C911.294 493.639 911.418 493.569 912.694 492.773L913.969 491.976C916.056 490.609 917.673 489.195 918.724 487.704C919.774 486.214 920.109 484.354 919.684 482.132C919.267 479.956 918.136 478.376 916.273 477.305C914.411 476.234 912.275 475.905 909.921 476.356C907.166 476.883 905.071 478.205 903.634 480.322C902.188 482.395 901.716 484.742 902.218 487.363L905.55 486.725C904.912 483.393 906.833 480.677 910.432 479.988C913.319 479.436 915.679 480.458 916.181 483.079C916.408 484.509 915.972 485.836 914.879 487.104C914.226 487.782 912.699 488.949 910.246 490.57C908.07 491.953 906.953 492.858 905.484 494.566C904.104 496.258 903.598 498.427 904.083 500.96L923.452 497.253Z" fill="white"/>
<path d="M967.173 489.348C972.859 488.26 976.248 485.033 975.407 480.635C974.931 478.147 972.966 476.542 970.183 476.2C971.809 474.83 972.59 472.654 972.258 470.921C971.536 467.145 967.728 465.295 962.797 466.238C959.109 466.944 956.53 468.865 955.066 472.047L957.835 474.003C958.76 471.616 960.466 470.184 962.954 469.708C965.975 469.13 968.274 470.072 968.648 472.027C969.013 473.937 967.732 475.425 965.778 475.799L961.024 476.709L961.602 479.73L966.578 478.778C969.243 478.268 971.328 479.297 971.711 481.296C972.161 483.65 970.028 485.256 966.518 485.927C963.009 486.599 960.274 485.787 958.315 483.49L955.88 486.167C958.622 489.188 962.375 490.266 967.173 489.348Z" fill="white"/>
<path d="M987.708 475.702L989.25 465.229L994.771 474.35L987.708 475.702ZM1003.41 481.954L991.03 461.297L986.676 462.13L982.797 485.898L986.307 485.226L987.182 479.21L996.644 477.4L999.812 482.642L1003.41 481.954Z" fill="white"/>
<path d="M1029.25 477.01L1025 454.797L1010.07 457.653C1010.54 460.097 1010.92 462.096 1011.17 463.615L1011.87 468.038C1012.28 470.907 1012.22 472.255 1012.09 473.753C1011.75 476.03 1010.81 476.67 1009.09 478.013L1011.25 481.144C1013.1 479.962 1014.33 478.713 1014.99 477.343C1015.65 475.974 1015.92 474.033 1015.78 471.619C1015.68 469.152 1015.19 465.378 1014.25 460.261L1022.07 458.764L1025.69 477.69L1029.25 477.01Z" fill="white"/>
<path d="M443.001 279.606L442.581 269.337L392.855 278.852C395.357 268.443 403.3 260.77 415.991 251.489C423.456 245.725 428.146 241.61 433.211 235.047C438.249 228.349 440.056 220.171 438.378 211.402C437.113 204.791 433.641 199.861 428.099 196.586C422.556 193.311 416.207 192.428 408.89 193.828C399.812 195.565 392.521 200.037 386.883 207.269C381.244 214.502 378.521 222.295 378.715 230.65L390.368 228.42C390.174 223.003 391.871 217.923 395.645 213.425C399.419 208.926 404.207 206.052 409.897 204.963C413.827 204.211 417.692 204.591 421.221 206.153C424.75 207.716 426.996 210.642 427.796 214.825C428.803 220.087 427.158 225.436 424.687 229.405C423.506 231.31 421.674 233.478 419.055 235.938C416.571 238.371 414.416 240.322 412.59 241.79C410.764 243.258 408.203 245.287 404.88 247.741C390.034 258.973 380.608 272.105 381.351 291.403L443.001 279.606Z" fill="white"/>
<path d="M524.537 173.098L457.603 185.905L458.455 210.916L469.024 208.894L468.591 194.152L509.917 186.245C498.233 197.851 490.271 210.563 485.71 224.162C481.149 237.762 479.189 253.941 479.803 272.564L490.778 270.464C490.189 251.976 492.337 236.041 497.492 222.607C502.621 209.039 511.776 195.959 524.821 183.393L524.537 173.098Z" fill="white"/>
<path d="M582.474 250.821C586.313 245.191 584.893 237.771 579.298 234.226C573.924 230.36 566.471 231.785 562.633 237.415C559.013 242.723 560.433 250.143 565.808 254.01C571.402 257.555 578.854 256.129 582.474 250.821Z" fill="white"/>
<path d="M686.99 222.571L664.498 226.874L661.958 146.803L651.389 148.825L623.343 171.814L630.802 178.498L651.816 161.331L653.929 228.897L626.017 234.237L626.302 244.532L687.274 232.866L686.99 222.571Z" fill="white"/>
<path d="M767.976 217.424L767.556 207.155L717.83 216.67C720.333 206.261 728.275 198.587 740.966 189.306C748.431 183.542 753.121 179.428 758.186 172.865C763.225 166.166 765.031 157.989 763.353 149.219C762.088 142.608 758.616 137.678 753.074 134.403C747.531 131.128 741.182 130.245 733.865 131.645C724.787 133.382 717.497 137.854 711.858 145.087C706.219 152.319 703.497 160.113 703.691 168.467L715.343 166.237C715.149 160.82 716.846 155.74 720.62 151.242C724.394 146.744 729.182 143.87 734.873 142.781C738.802 142.029 742.667 142.408 746.196 143.971C749.726 145.533 751.971 148.46 752.772 152.642C753.778 157.904 752.133 163.254 749.662 167.223C748.482 169.127 746.649 171.296 744.03 173.755C741.546 176.188 739.391 178.139 737.565 179.607C735.739 181.076 733.178 183.104 729.855 185.558C715.009 196.79 705.583 209.922 706.326 229.22L767.976 217.424Z" fill="white"/>
<path d="M826.205 204.184C830.044 198.554 828.624 191.134 823.03 187.589C817.655 183.723 810.203 185.149 806.364 190.778C802.745 196.086 804.165 203.506 809.539 207.373C815.134 210.918 822.586 209.492 826.205 204.184Z" fill="white"/>
<path d="M930.464 186.332L930.044 176.063L880.317 185.578C882.82 175.169 890.763 167.496 903.454 158.215C910.918 152.451 915.609 148.337 920.674 141.773C925.712 135.075 927.519 126.897 925.841 118.128C924.576 111.517 921.104 106.587 915.561 103.312C910.019 100.037 903.67 99.1538 896.353 100.554C887.275 102.291 879.984 106.763 874.345 113.995C868.707 121.228 865.984 129.022 866.178 137.376L877.831 135.146C877.637 129.729 879.334 124.649 883.108 120.151C886.882 115.652 891.669 112.778 897.36 111.689C901.29 110.938 905.155 111.317 908.684 112.879C912.213 114.442 914.459 117.369 915.259 121.551C916.266 126.813 914.621 132.162 912.15 136.132C910.969 138.036 909.137 140.205 906.518 142.664C904.034 145.097 901.879 147.048 900.053 148.516C898.227 149.984 895.665 152.013 892.343 154.467C877.497 165.699 868.071 178.831 868.814 198.129L930.464 186.332Z" fill="white"/>
<path d="M1011.97 160.388L989.473 164.692L986.933 84.6203L976.365 86.6425L948.318 109.631L955.777 116.315L976.791 99.148L978.905 166.714L950.993 172.055L951.277 182.35L1012.25 170.683L1011.97 160.388Z" fill="white"/>
<path d="M145.895 678.896L138.902 642.35L325.667 606.613L332.66 643.159L145.895 678.896Z" fill="white"/>
<path d="M135.531 624.757L133.2 612.575L319.966 576.838L322.297 589.02L135.531 624.757Z" fill="white"/>
<path d="M122.062 554.365L116.624 525.941L303.389 490.204L308.828 518.629L122.062 554.365Z" fill="white"/>
<path d="M111.445 498.876L107.042 475.866L293.808 440.129L298.211 463.139L111.445 498.876Z" fill="white"/>
<path d="M89.9492 386.525L86.8413 370.283L273.607 334.546L276.715 350.789L89.9492 386.525Z" fill="white"/>
<path d="M99.5312 436.61L93.0563 402.771L279.822 367.035L286.297 400.874L99.5312 436.61Z" fill="white"/>
<path d="M78.8086 328.308L71.2465 288.787L258.012 253.05L265.574 292.571L78.8086 328.308Z" fill="white"/>
<path d="M84.418 357.631L81.9786 344.882L268.744 309.146L271.183 321.894L84.418 357.631Z" fill="white"/>
<path d="M67.9336 271.477L64.5666 253.88L251.332 218.144L254.699 235.74L67.9336 271.477Z" fill="white"/>
<path d="M126.469 577.382L125.433 571.968L312.198 536.231L313.234 541.645L126.469 577.382Z" fill="white"/>
<path d="M105.488 467.741L104.452 462.327L291.218 426.59L292.254 432.004L105.488 467.741Z" fill="white"/>
<path d="M63.0117 245.755L61.9757 240.341L248.741 204.604L249.777 210.018L63.0117 245.755Z" fill="white"/>
<path d="M385.084 614.941L368.854 611.367L395.011 610.236L394.357 607.021L365.743 608.299L366.947 614.222L383.193 617.66L368.623 622.471L369.792 628.225L398.407 626.947L397.753 623.732L371.426 624.897L386.132 620.102L385.084 614.941Z" fill="white"/>
<path d="M391.365 590.113C390.609 586.39 388.146 583.455 384.756 581.853L383.574 584.56C385.862 585.549 387.539 587.895 388.089 590.603C388.768 593.945 387.151 596.697 384.156 597.702C382.241 589.369 380.067 585.229 377.777 583.58C376.111 582.376 374.754 582.256 373.176 582.576C369.976 583.227 368.454 586.664 369.374 591.191C370.104 594.787 371.943 597.497 374.942 599.354C377.94 601.212 381.082 601.807 384.452 601.122C387.097 600.584 389.058 599.305 390.335 597.283C391.569 595.27 391.924 592.863 391.365 590.113ZM372.847 591.013C372.322 588.433 372.798 586.618 374.291 586.315C375.101 586.15 375.844 586.307 376.519 586.787C377.185 587.224 377.955 588.389 378.828 590.282C379.693 592.133 380.491 594.746 381.213 598.08C377.244 598.005 373.741 595.413 372.847 591.013Z" fill="white"/>
<path d="M374.367 572.043C372.694 572.119 371.217 571.626 369.978 570.556C368.687 569.453 367.892 568.161 367.591 566.68C367.083 564.184 368.164 562.29 370.895 561.736C371.321 561.649 371.756 561.605 372.243 561.594L385.01 561.026L384.33 557.684L371.043 558.313C370.514 558.333 369.994 558.395 369.524 558.49C365.557 559.296 363.565 562.609 364.382 566.628C364.88 569.081 366.291 570.997 368.615 572.375C368.026 572.319 367.181 572.314 366.003 572.421L366.674 575.721L387.804 574.775L387.133 571.475L374.367 572.043Z" fill="white"/>
<path d="M380.195 535.149C379.671 532.568 377.474 530.504 374.205 529.935L373.022 532.642C375.259 532.936 376.762 533.996 377.046 535.393C377.467 537.465 375.891 538.887 372.307 539.616C370.307 531.52 365.807 530.144 361.925 530.933C359.067 531.513 357.696 533.73 358.212 536.269C358.745 538.892 360.395 540.671 363.119 541.615C360.816 542.744 359.854 544.349 360.267 546.38C360.593 547.987 361.602 549.236 363.345 550.159C365.087 551.083 367.059 551.607 369.313 551.766C371.557 551.882 373.836 551.728 376.182 551.251C380.619 550.349 382.843 548.179 382.258 545.302C381.837 543.229 380.205 541.755 377.404 540.87C379.749 539.513 380.694 537.603 380.195 535.149ZM361.472 536.575C361.24 535.433 361.802 534.702 363.21 534.416C364.362 534.182 365.489 534.481 366.668 535.255C367.847 536.029 368.728 537.523 369.329 539.824C364.763 539.871 361.894 538.648 361.472 536.575ZM375.009 548.318C372.492 548.829 370.059 548.883 367.635 548.539C365.202 548.152 363.835 547.328 363.578 546.059C363.302 544.705 364.487 543.76 367.175 543.214C369.692 542.702 372.209 542.631 374.676 542.967C377.101 543.311 378.459 544.092 378.717 545.361C379 546.757 377.781 547.754 375.009 548.318Z" fill="white"/>
<path d="M356.258 490.591L358.012 499.221L361.272 499.087L360.188 493.757L366.921 493.446C367.862 494.796 368.513 496.47 368.918 498.458C369.923 503.408 367.334 506.622 362.172 507.671C357.394 508.642 352.827 508.028 349.435 505.325C347.735 503.953 346.665 502.188 346.227 500.03C345.737 497.619 346.466 494.871 348.034 493.187L345.189 491.21C342.923 493.609 342.202 496.839 343.019 500.858C343.913 505.258 346.837 508.497 350.662 510.054C354.48 511.569 358.995 511.929 363.432 511.027C370.257 509.64 373.656 505.161 372.28 498.392C371.687 495.473 370.326 492.71 368.231 490.052L356.258 490.591Z" fill="white"/>
<path d="M354.507 476.514C351.034 476.692 348.445 474.663 347.8 471.49C347.413 469.586 347.71 468.204 348.69 467.344L345.99 464.985C344.66 466.313 344.058 468.814 344.48 470.887C345.021 473.552 346.449 475.553 348.713 476.855C347.646 476.851 346.801 476.847 346.144 476.892L347.933 485.692L351.192 485.558L350.075 480.058L367.945 479.246L367.274 475.946L354.507 476.514Z" fill="white"/>
<path d="M347.535 440.459C344.848 441.006 342.878 442.243 341.593 444.222C340.298 446.159 339.918 448.439 340.459 451.105C341.138 454.447 342.926 456.903 345.787 458.524C348.649 460.145 351.765 460.613 355.049 459.946C357.78 459.391 359.792 458.145 361.129 456.199C362.457 454.211 362.838 451.931 362.296 449.266C361.591 445.797 359.795 443.298 356.866 441.779C353.927 440.218 350.82 439.792 347.535 440.459ZM354.174 456.511C351.827 456.988 349.676 456.676 347.643 455.636C345.611 454.595 344.328 452.873 343.838 450.462C343.176 447.204 345.118 444.519 348.573 443.817C350.919 443.34 353.105 443.601 355.137 444.641C357.17 445.682 358.402 447.37 358.892 449.781C359.571 453.124 357.629 455.809 354.174 456.511Z" fill="white"/>
<path d="M345.958 416.084C344.848 416.309 343.893 416.635 343.1 417.105L344.598 420.104C345.332 419.779 346.04 419.547 346.765 419.4C350.306 418.68 352.808 419.846 353.487 423.188C353.943 425.43 353.015 426.984 350.839 427.426C350.626 427.47 350.276 427.497 349.756 427.558L339.498 428.013L337.09 416.168L333.839 416.344L336.238 428.147L329.59 428.441L330.747 431.73L336.908 431.447L337.777 435.72L341.037 435.586L340.168 431.313L350.554 430.832C351.126 430.804 351.689 430.734 352.201 430.63C355.998 429.858 357.777 427.03 356.874 422.587C356.384 420.176 355.118 418.319 353.051 417.109C350.984 415.899 348.645 415.537 345.958 416.084Z" fill="white"/>
<path d="M351.762 397.432C351.006 393.709 348.543 390.774 345.153 389.172L343.97 391.879C346.259 392.868 347.935 395.214 348.486 397.922C349.165 401.264 347.547 404.016 344.553 405.021C342.638 396.687 340.464 392.548 338.174 390.898C336.508 389.695 335.151 389.575 333.572 389.895C330.373 390.546 328.85 393.983 329.77 398.509C330.501 402.105 332.34 404.815 335.338 406.673C338.337 408.531 341.478 409.126 344.849 408.441C347.493 407.903 349.454 406.624 350.732 404.602C351.966 402.589 352.321 400.182 351.762 397.432ZM333.244 398.332C332.719 395.752 333.194 393.937 334.687 393.633C335.498 393.469 336.241 393.626 336.916 394.106C337.582 394.543 338.352 395.708 339.225 397.601C340.09 399.452 340.888 402.065 341.609 405.399C337.641 405.324 334.138 402.732 333.244 398.332Z" fill="white"/>
<path d="M325.763 364.809C324.41 367.551 324.107 370.652 324.821 374.164C325.964 379.79 329.142 381.876 332.854 381.122C335.541 380.575 337.006 378.383 337.248 374.546C337.247 374.326 337.264 373.97 337.314 373.563C337.456 371.199 337.633 369.666 337.871 368.868C338.108 368.071 338.594 367.62 339.362 367.464C341.282 367.074 342.598 368.524 343.269 371.824C343.871 374.786 343.499 377.328 342.145 379.41L345.264 381.859C346.976 379.353 347.38 375.879 346.469 371.394C345.291 365.598 341.907 363.158 338.153 363.921C335.125 364.537 334.189 366.929 333.889 371.352L333.847 372.241C333.715 374.867 333.682 375.799 333.043 376.81C332.745 377.311 332.277 377.627 331.679 377.748C329.845 378.121 328.657 376.864 328.081 374.03C327.496 371.153 327.757 368.721 328.898 366.683L325.763 364.809Z" fill="white"/>
<path d="M318.381 340.291L319.052 343.591C319.982 343.578 320.989 343.506 321.987 343.391L322.073 343.374C320.087 345.187 319.399 347.485 319.975 350.32C320.542 353.112 322.346 355.212 325.378 356.579C328.367 357.954 331.628 358.26 335.083 357.558C340.245 356.509 342.715 352.923 341.812 348.481C341.322 346.07 339.86 344.12 337.485 342.709C339.209 342.667 340.139 342.654 340.182 342.645L348.545 342.267L347.874 338.967L318.381 340.291ZM327.765 342.966C330.239 342.463 332.561 342.74 334.721 343.755C336.882 344.769 338.165 346.271 338.569 348.259C339.145 351.094 337.237 353.508 333.653 354.236C331.179 354.739 328.866 354.504 326.748 353.481C324.587 352.466 323.304 350.965 322.9 348.977C322.324 346.142 324.224 343.686 327.765 342.966Z" fill="white"/>
<path d="M334.287 313.64L313.157 314.586L313.836 317.928L326.825 317.359C328.455 317.292 329.838 317.76 331.069 318.787C332.299 319.815 333.035 321.031 333.327 322.469C333.809 324.838 332.719 326.69 330.117 327.219C329.562 327.331 329.17 327.367 328.863 327.386L315.874 327.955L316.562 331.339L330.08 330.751C330.609 330.731 331.087 330.678 331.556 330.583C335.438 329.794 337.345 326.499 336.545 322.564C336.055 320.153 334.704 318.313 332.491 317.045C333.166 317.084 334.011 317.088 334.975 317.024L334.287 313.64Z" fill="white"/>
<path d="M330.977 295.167C330.22 291.444 327.758 288.508 324.368 286.907L323.185 289.614C325.474 290.602 327.15 292.949 327.701 295.656C328.38 298.999 326.762 301.75 323.768 302.755C321.853 294.422 319.679 290.282 317.389 288.633C315.723 287.43 314.366 287.309 312.787 287.63C309.588 288.28 308.065 291.717 308.985 296.244C309.716 299.84 311.555 302.55 314.553 304.408C317.552 306.265 320.693 306.86 324.064 306.175C326.708 305.638 328.669 304.358 329.947 302.337C331.181 300.324 331.536 297.917 330.977 295.167ZM312.459 296.067C311.934 293.486 312.409 291.672 313.902 291.368C314.713 291.203 315.456 291.361 316.131 291.84C316.797 292.278 317.567 293.443 318.44 295.336C319.305 297.186 320.103 299.8 320.824 303.133C316.856 303.059 313.353 300.467 312.459 296.067Z" fill="white"/>
<path d="M296.792 255.073C296.302 252.662 297.537 250.869 299.968 250.375C301.547 250.054 303.015 250.284 304.382 251.108C305.74 251.889 306.561 253.088 306.888 254.695L308.272 261.507L298.193 261.969L296.792 255.073ZM309.924 253.462C309.451 251.135 308.109 249.337 305.939 248.06C303.769 246.783 301.379 246.388 298.777 246.916C294.81 247.723 292.647 250.849 293.472 254.911L295.613 265.445L324.227 264.167L323.548 260.825L311.532 261.373L309.924 253.462Z" fill="white"/>
<path d="M304.972 232.811C301.499 232.988 298.91 230.959 298.265 227.786C297.878 225.883 298.175 224.501 299.155 223.641L296.455 221.282C295.125 222.61 294.523 225.111 294.944 227.184C295.486 229.849 296.914 231.85 299.178 233.152C298.111 233.148 297.266 233.144 296.609 233.189L298.397 241.989L301.657 241.855L300.54 236.355L318.41 235.543L317.739 232.243L304.972 232.811Z" fill="white"/>
<path d="M298 196.756C295.313 197.302 293.343 198.54 292.057 200.519C290.763 202.456 290.382 204.736 290.924 207.401C291.603 210.743 293.391 213.2 296.252 214.821C299.114 216.442 302.229 216.91 305.514 216.242C308.244 215.687 310.257 214.442 311.594 212.496C312.922 210.508 313.303 208.228 312.761 205.563C312.056 202.093 310.26 199.595 307.331 198.076C304.392 196.514 301.285 196.089 298 196.756ZM304.639 212.808C302.292 213.285 300.141 212.973 298.108 211.932C296.076 210.892 294.793 209.17 294.303 206.759C293.641 203.501 295.583 200.816 299.038 200.114C301.384 199.637 303.569 199.897 305.602 200.938C307.635 201.979 308.867 203.667 309.357 206.078C310.036 209.42 308.094 212.106 304.639 212.808Z" fill="white"/>
</g>
<defs>
<filter id="filter0_d_173:5110" x="0" y="0.996094" width="1144.95" height="745.441" filterUnits="userSpaceOnUse" color-interpolation-filters="sRGB">
<feFlood flood-opacity="0" result="BackgroundImageFix"/>
<feColorMatrix in="SourceAlpha" type="matrix" values="0 0 0 0 0 0 0 0 0 0 0 0 0 0 0 0 0 0 127 0" result="hardAlpha"/>
<feOffset dy="4"/>
<feGaussianBlur stdDeviation="15"/>
<feComposite in2="hardAlpha" operator="out"/>
<feColorMatrix type="matrix" values="0 0 0 0 0 0 0 0 0 0 0 0 0 0 0 0 0 0 0.5 0"/>
<feBlend mode="normal" in2="BackgroundImageFix" result="effect1_dropShadow_173:5110"/>
<feBlend mode="normal" in="SourceGraphic" in2="effect1_dropShadow_173:5110" result="shape"/>
</filter>
</defs>
</svg>
