<svg width="1145" height="747" viewBox="0 0 1145 747" fill="none" xmlns="http://www.w3.org/2000/svg">
<g filter="url(#filter0_d_173:3990)">
<path d="M126.892 709.512L32.9238 218.422L1018.05 29.9217L1112.02 521.012L126.892 709.512Z" fill="black" stroke="white" stroke-width="5"/>
<path fill-rule="evenodd" clip-rule="evenodd" d="M1019.3 207.397L388.091 328.177L441.574 607.686L1072.78 486.907L1019.3 207.397ZM382.578 324.435L437.832 613.2L1078.3 490.649L1023.04 201.884L382.578 324.435Z" fill="white"/>
<path fill-rule="evenodd" clip-rule="evenodd" d="M1064.85 430.381L430.862 551.692L429.977 547.064L1063.96 425.754L1064.85 430.381Z" fill="white"/>
<path d="M498.77 411.144L445.432 421.35L446.913 429.089L469.399 424.786L480.926 485.027L489.292 483.426L477.766 423.185L500.251 418.883L498.77 411.144Z" fill="white"/>
<path d="M542.024 410.781C544.984 406.42 543.884 400.668 539.563 397.917C535.411 394.917 529.659 396.018 526.699 400.379C523.908 404.491 525.009 410.243 529.16 413.243C533.481 415.994 539.233 414.893 542.024 410.781ZM573.635 459.265L553.973 463.027L550.651 445.666C548.409 433.953 546.809 425.586 545.953 420.546L516.25 426.229L517.731 433.968L539.067 429.886L545.711 464.608L520.61 469.411L522.091 477.15L575.116 467.004L573.635 459.265Z" fill="white"/>
<path d="M587.992 433.1C586.411 424.838 588.254 419.173 592.751 418.313C596.098 417.672 598.795 419.867 599.735 424.782L606.659 460.969L614.399 459.488L608.595 429.158C607.014 420.896 608.962 415.211 613.564 414.33C616.806 413.71 619.398 415.924 620.338 420.84L627.263 457.026L635.002 455.545L627.958 418.732C626.297 410.051 620.49 405.199 614.11 406.42C609.508 407.301 606.413 410.386 604.739 415.802C602.08 411.541 597.795 409.542 593.298 410.402C589.637 411.103 586.82 413.377 584.866 417.328C584.79 416.367 584.53 415.007 584.19 413.229L576.346 414.73C577.411 419.73 579.012 428.097 581.253 439.811C583.495 451.524 585.096 459.891 585.952 464.931L593.795 463.43L587.992 433.1Z" fill="white"/>
<path d="M651.211 422.63C650.81 413.166 655.984 406.213 665.083 404.472C674.182 402.731 681.349 407.323 684.26 416.306L651.211 422.63ZM687.798 430.265C685.915 435.721 680.26 440.164 673.672 441.424C664.05 443.265 656.087 439.043 652.777 430.245L693.565 422.44C693.558 420.707 693.323 418.909 692.943 416.921C691.522 409.496 688.08 403.975 682.723 400.338C677.365 396.702 671.277 395.481 664.374 396.802C656.949 398.223 651.343 401.789 647.473 407.625C643.707 413.441 642.502 420.177 643.963 427.811C645.424 435.446 649.135 441.241 654.991 445.216C660.847 449.191 667.582 450.395 675.008 448.975C684.734 447.113 692.301 441.329 695.168 433.083L687.798 430.265Z" fill="white"/>
<path d="M818.426 420.448L813.053 351.007L805.418 352.468L810.816 416.375L796.516 380.733L784.593 383.014L784.67 421.378L766.094 359.992L758.25 361.493L778.683 428.053L792.07 425.491L791.55 387.646L805.039 423.01L818.426 420.448Z" fill="white"/>
<path d="M880.394 409.675C884.055 408.974 886.828 407.034 888.733 403.959C890.618 400.78 891.213 397.089 890.432 393.01L883 392.697C883.941 397.613 882.654 401.653 879.83 402.194C877.739 402.594 875.974 401.305 875.574 399.214L870.851 374.532C869.931 369.721 867.288 366.107 863.027 363.67C858.766 361.232 853.759 360.564 848.216 361.625C842.464 362.725 837.934 365.11 834.709 368.654C831.484 372.199 830.282 376.115 831.102 380.403C831.343 381.658 831.647 382.684 832.121 383.46L839.665 380.391C839.48 379.992 839.296 379.594 839.196 379.071C838.375 374.783 842.461 370.64 849.05 369.38C855.848 368.079 861.584 371.426 862.684 377.178L863.405 380.943C855.826 383.261 850.527 385.034 847.425 386.386C837.785 390.399 832.845 396.873 834.386 404.927C835.887 412.77 843.162 416.799 852.784 414.958C859.582 413.657 864.645 410.086 868.057 404.121C869.858 408.438 874.851 410.735 880.394 409.675ZM852.344 407.561C847.429 408.502 843.667 406.403 842.886 402.324C842.246 398.978 844.28 395.444 848.537 393.329C851.808 391.727 857.171 389.725 864.626 387.323L866.387 396.527C863.687 402.247 858.515 406.381 852.344 407.561Z" fill="white"/>
<path d="M941.737 388.83L921.343 392.733L917.021 370.142C915.44 361.88 919.793 355.735 927.846 354.194C932.552 353.293 936.264 353.993 938.876 356.312L944.046 349.902C940.292 346.717 934.04 345.203 927.869 346.384C921.49 347.604 916.93 350.97 914.21 356.586C914.054 355.207 913.759 353.095 913.218 350.271L892.092 354.314L893.573 362.053L906.437 359.591L913.081 394.314L897.812 397.235L899.292 404.975L943.218 396.57L941.737 388.83Z" fill="white"/>
<path d="M976.096 378.244C972.612 375.333 970.287 371.117 969.227 365.574C968.166 360.031 968.79 355.358 970.953 351.366C973.117 347.375 976.332 344.916 980.411 344.136C984.49 343.355 988.386 344.453 991.87 347.364C995.354 350.275 997.659 354.387 998.72 359.93C999.78 365.473 999.177 370.25 997.013 374.242C994.85 378.234 991.614 380.587 987.535 381.368C983.457 382.148 979.581 381.155 976.096 378.244ZM975.076 390.474C974.635 388.173 974.09 385.892 973.566 383.716C978.645 388.165 984.375 389.779 990.963 388.518C997.134 387.337 1001.71 384.076 1004.89 378.589C1008.07 373.102 1008.84 366.342 1007.3 358.289C1005.75 350.236 1002.57 344.341 997.588 340.415C992.608 336.49 987.128 335.045 980.957 336.225C974.473 337.466 969.64 341.101 966.541 347.007C966.346 345.418 966.03 343.201 965.47 340.273L957.103 341.874C958.548 348.861 960.77 360.47 963.912 376.89C967.053 393.31 969.275 404.919 970.511 411.946L978.878 410.345L975.076 390.474Z" fill="white"/>
<path d="M383.68 325.184L1020.44 203.342L1031.95 263.501L395.191 385.343L383.68 325.184Z" fill="white"/>
<path d="M467.806 326.355L438.07 332.044L438.909 336.428L451.407 334.036L456.236 359.27L460.974 358.363L456.146 333.13L468.644 330.738L467.806 326.355Z" fill="black"/>
<path d="M507.331 349.493L506.493 345.11L488.723 348.51L487.102 340.039L500.37 337.501L499.531 333.117L486.263 335.656L484.733 327.66L502.266 324.305L501.427 319.921L479.156 324.183L484.823 353.8L507.331 349.493Z" fill="black"/>
<path d="M544.744 342.334L529.429 329.362L537.596 313.001L532.443 313.987L526.047 326.447L515.206 317.285L509.519 318.373L523.096 329.959L514.239 348.171L519.57 347.151L526.56 332.981L538.821 343.468L544.744 342.334Z" fill="black"/>
<path d="M577.3 336.105L571.633 306.488L566.894 307.395L569.195 319.419L554.386 322.253L552.085 310.228L547.347 311.135L553.014 340.752L557.752 339.845L555.225 326.636L570.033 323.802L572.561 337.012L577.3 336.105Z" fill="black"/>
<path d="M600.787 332.225C605.17 331.386 608.453 329.284 610.563 325.872C612.732 322.448 613.38 318.456 612.485 313.776C611.612 309.215 609.558 305.862 606.301 303.6C603.103 301.326 599.277 300.584 594.893 301.423C590.451 302.273 587.169 304.375 585.036 307.669C582.903 310.963 582.232 314.837 583.105 319.398C584 324.077 586.088 327.608 589.309 330C592.519 332.333 596.345 333.075 600.787 332.225ZM607.569 314.717C608.215 318.093 607.836 320.929 606.397 323.353C605.016 325.766 602.84 327.227 599.937 327.782C597.035 328.338 594.473 327.784 592.24 326.062C590.066 324.329 588.667 321.833 588.021 318.457C586.786 312.001 589.879 306.988 595.744 305.866C601.608 304.744 606.344 308.32 607.569 314.717Z" fill="black"/>
<path d="M644.473 310.357L643.566 305.618L622.242 309.699L623.149 314.437L644.473 310.357Z" fill="black"/>
<path d="M673.33 313.677C680.964 311.541 684.684 306.593 683.46 300.195C682.281 294.035 677.102 291.035 669.159 291.879L668.41 287.97L663.672 288.877L664.42 292.786C656.726 294.934 653.02 299.634 654.199 305.794C655.423 312.192 660.706 315.417 668.591 314.584L669.339 318.494L674.078 317.587L673.33 313.677ZM679.136 301.023C679.907 305.051 677.492 308.153 672.581 309.768L669.907 295.789C675.066 295.477 678.411 297.232 679.136 301.023ZM658.523 304.967C657.797 301.176 660.258 298.31 665.168 296.696L667.843 310.675C662.683 310.987 659.293 308.995 658.523 304.967Z" fill="black"/>
<path d="M720.435 308.717L719.596 304.333L701.826 307.734L700.205 299.263L713.473 296.724L712.635 292.341L699.366 294.88L697.836 286.883L715.369 283.528L714.531 279.145L692.259 283.407L697.926 313.024L720.435 308.717Z" fill="black"/>
<path d="M751.291 292.005C750.711 296.353 747.681 299.451 743.179 300.312C737.256 301.445 732.485 297.692 731.216 291.057C729.991 284.66 733.085 279.647 739.008 278.514C744.043 277.551 748.342 279.798 750.244 284.285L754.333 281.906C751.416 275.649 745.314 272.641 738.147 274.012C733.704 274.862 730.422 276.964 728.289 280.258C726.157 283.552 725.486 287.426 726.358 291.987C727.254 296.666 729.342 300.197 732.562 302.589C735.772 304.922 739.598 305.664 744.041 304.814C750.497 303.578 754.875 299.179 755.86 293.096L751.291 292.005Z" fill="black"/>
<path d="M787.46 265.19L757.725 270.88L758.564 275.263L771.062 272.872L775.89 298.105L780.629 297.199L775.801 271.965L788.299 269.574L787.46 265.19Z" fill="black"/>
<path d="M825.801 288.555L820.134 258.938L811.842 260.525L805.565 288.375L800.646 262.667L796.085 263.54L801.752 293.157L809.275 291.717L815.947 261.766L821.24 289.428L825.801 288.555Z" fill="black"/>
<path d="M846.66 258.099C849.266 257.601 851.327 258.742 851.825 261.348C852.29 263.776 850.864 265.953 848.199 266.463L839.847 268.061L838.249 259.709L846.66 258.099ZM849.74 270.343C852.82 269.754 855.343 270.745 855.921 273.766C856.544 277.024 854.139 278.896 850.822 279.531L842.352 281.152L840.618 272.089L849.74 270.343ZM852.67 283.414C858.535 282.292 861.891 278.334 860.848 272.884C860.214 269.567 857.947 267.668 854.048 267.186C856.311 265.217 857.184 262.717 856.606 259.696C855.744 255.195 851.564 252.924 846.826 253.831L832.728 256.528L838.395 286.145L852.67 283.414Z" fill="black"/>
<path d="M877.617 266.299L879.673 252.335L887.035 264.496L877.617 266.299ZM898.554 274.634L882.047 247.092L876.242 248.202L871.069 279.893L875.749 278.998L876.915 270.977L889.532 268.562L893.756 275.552L898.554 274.634Z" fill="black"/>
<path d="M933.005 268.042L927.337 238.425L907.435 242.234C908.058 245.492 908.568 248.157 908.894 250.182L909.839 256.08C910.386 259.905 910.301 261.703 910.13 263.7C909.667 266.736 908.418 267.589 906.12 269.38L909.007 273.555C911.469 271.979 913.115 270.313 913.993 268.487C914.872 266.661 915.237 264.074 915.051 260.855C914.912 257.566 914.257 252.533 913.012 245.71L923.437 243.715L928.266 268.949L933.005 268.042Z" fill="black"/>
<path d="M955.796 248.331C959.824 247.56 962.889 248.816 963.58 252.429C964.306 256.22 962.053 258.247 958.677 258.893L949.733 260.605L947.681 249.883L955.796 248.331ZM960.525 262.776C966.448 261.643 969.653 257.53 968.44 251.192C967.839 248.053 966.331 245.946 963.915 244.874C961.559 243.789 958.805 243.518 955.784 244.096L946.899 245.796L944.848 235.075L940.109 235.982L945.776 265.599L960.525 262.776Z" fill="black"/>
<path d="M493.395 571.438C492.96 574.698 490.688 577.021 487.311 577.668C482.869 578.518 479.291 575.702 478.339 570.727C477.421 565.929 479.741 562.169 484.183 561.319C487.959 560.596 491.183 562.282 492.61 565.647L495.676 563.863C493.489 559.17 488.913 556.914 483.537 557.943C480.205 558.58 477.744 560.156 476.144 562.627C474.544 565.097 474.041 568.003 474.696 571.424C475.367 574.933 476.933 577.581 479.349 579.375C481.756 581.125 484.625 581.681 487.957 581.044C492.8 580.117 496.083 576.818 496.822 572.256L493.395 571.438Z" fill="white"/>
<path d="M520.522 551.326L498.221 555.594L498.85 558.881L508.223 557.087L511.845 576.013L515.399 575.333L511.777 556.407L521.151 554.614L520.522 551.326Z" fill="white"/>
<path d="M534.864 562.352L536.406 551.879L541.927 561L534.864 562.352ZM550.566 568.603L538.186 547.946L533.832 548.779L529.953 572.548L533.463 571.876L534.338 565.86L543.8 564.049L546.968 569.292L550.566 568.603Z" fill="white"/>
<path d="M560.671 563.262C561.347 561.981 561.593 560.138 561.47 557.813C561.339 555.444 560.89 551.891 560.033 547.174L567.585 545.729L570.578 561.366L560.671 563.262ZM570.51 541.761L555.85 544.566C556.403 547.454 556.819 549.631 557.072 551.194C557.37 552.749 557.623 554.313 557.787 555.893C557.996 557.465 558.075 558.601 558.069 559.293C558.005 560.641 557.592 562.332 556.858 563.071C556.518 563.458 555.991 563.835 555.384 564.274L557.033 572.892L560.232 572.28L559.212 566.949L574.761 563.974L575.781 569.305L578.979 568.693L577.33 560.074L574.132 560.686L570.51 541.761Z" fill="white"/>
<path d="M602.554 558.656L598.303 536.443L592.084 537.633L587.377 558.52L583.687 539.24L580.267 539.894L584.517 562.107L590.159 561.027L595.163 538.564L599.133 559.31L602.554 558.656Z" fill="white"/>
<path d="M620.258 555.729C623.546 555.1 626.007 553.523 627.59 550.964C629.217 548.396 629.703 545.402 629.032 541.892C628.377 538.471 626.837 535.957 624.394 534.26C621.995 532.555 619.125 531.998 615.838 532.627C612.506 533.265 610.045 534.841 608.445 537.312C606.845 539.782 606.342 542.688 606.997 546.108C607.668 549.618 609.234 552.266 611.65 554.06C614.057 555.81 616.926 556.366 620.258 555.729ZM625.344 542.598C625.829 545.13 625.545 547.257 624.465 549.075C623.43 550.885 621.798 551.98 619.621 552.397C617.444 552.813 615.522 552.398 613.848 551.107C612.217 549.807 611.168 547.935 610.684 545.403C609.757 540.561 612.077 536.801 616.475 535.959C620.874 535.118 624.426 537.8 625.344 542.598Z" fill="white"/>
<path d="M655.918 548.445L651.668 526.232L648.114 526.912L649.84 535.93L638.733 538.056L637.008 529.037L633.454 529.717L637.704 551.93L641.258 551.25L639.362 541.343L650.469 539.218L652.364 549.125L655.918 548.445Z" fill="white"/>
<path d="M698.111 520.523C700.066 520.149 701.611 521.004 701.985 522.959C702.334 524.781 701.265 526.413 699.265 526.795L693.001 527.994L691.803 521.73L698.111 520.523ZM700.421 529.706C702.731 529.264 704.623 530.007 705.057 532.273C705.524 534.716 703.721 536.12 701.233 536.596L694.88 537.812L693.58 531.015L700.421 529.706ZM702.619 539.509C707.017 538.667 709.535 535.699 708.753 531.612C708.277 529.124 706.576 527.699 703.652 527.338C705.35 525.861 706.004 523.986 705.571 521.721C704.925 518.344 701.79 516.641 698.236 517.322L687.662 519.345L691.913 541.557L702.619 539.509Z" fill="white"/>
<path d="M736.632 533.001L736.003 529.713L722.675 532.263L721.459 525.91L731.411 524.006L730.782 520.719L720.83 522.623L719.683 516.626L732.833 514.109L732.204 510.822L715.5 514.018L719.75 536.231L736.632 533.001Z" fill="white"/>
<path d="M762.47 528.057L758.22 505.844L754.666 506.524L756.391 515.542L745.285 517.667L743.559 508.649L740.005 509.329L744.255 531.542L747.809 530.862L745.914 520.955L757.02 518.83L758.916 528.737L762.47 528.057Z" fill="white"/>
<path d="M789.907 522.807L789.278 519.519L775.951 522.069L774.735 515.716L784.686 513.812L784.057 510.525L774.106 512.429L772.959 506.431L786.108 503.915L785.479 500.628L768.775 503.824L773.026 526.037L789.907 522.807Z" fill="white"/>
<path d="M806.083 500.093C808.437 499.643 810.423 500.875 810.865 503.185C811.375 505.85 810.092 507.569 807.56 508.054L800.452 509.414L798.93 501.462L806.083 500.093ZM808.9 511.205C810.81 510.84 812.371 509.851 813.484 508.21C814.598 506.569 814.96 504.612 814.51 502.257C814.127 500.258 813.138 498.697 811.603 497.656C810.068 496.614 808.297 496.262 806.253 496.653L794.747 498.855L798.997 521.067L802.551 520.387L801.081 512.702L808.9 511.205Z" fill="white"/>
<path d="M827.88 506.284L829.422 495.812L834.944 504.933L827.88 506.284ZM843.583 512.536L831.203 491.879L826.849 492.712L822.97 516.48L826.479 515.809L827.354 509.793L836.817 507.982L839.985 513.224L843.583 512.536Z" fill="white"/>
<path d="M857.115 517.407C861.711 515.192 863.874 511.094 862.999 506.518C862.421 503.497 860.528 501.787 858.04 502.263C855.774 502.697 854.481 504.602 854.914 506.868C855.314 508.956 856.97 510.389 859.777 509.898C859.777 512.062 858.489 513.276 855.683 514.734L857.115 517.407Z" fill="white"/>
<path d="M923.452 497.253L922.823 493.966L907.852 496.831C908.526 495.781 909.027 495.27 910.321 494.332C911.294 493.639 911.418 493.569 912.694 492.773L913.969 491.976C916.056 490.609 917.673 489.195 918.724 487.704C919.774 486.214 920.109 484.354 919.684 482.132C919.267 479.956 918.136 478.376 916.273 477.305C914.411 476.234 912.275 475.905 909.921 476.356C907.166 476.883 905.071 478.205 903.634 480.322C902.188 482.395 901.716 484.742 902.218 487.363L905.55 486.725C904.912 483.393 906.833 480.677 910.432 479.988C913.319 479.436 915.679 480.458 916.181 483.079C916.408 484.509 915.972 485.836 914.879 487.104C914.226 487.782 912.699 488.949 910.246 490.57C908.07 491.953 906.953 492.858 905.484 494.566C904.104 496.258 903.598 498.427 904.083 500.96L923.452 497.253Z" fill="white"/>
<path d="M967.173 489.348C972.859 488.26 976.248 485.033 975.407 480.635C974.931 478.147 972.966 476.542 970.183 476.2C971.809 474.83 972.59 472.654 972.258 470.921C971.536 467.145 967.728 465.295 962.797 466.238C959.109 466.944 956.53 468.865 955.066 472.047L957.835 474.003C958.76 471.616 960.466 470.184 962.954 469.708C965.975 469.13 968.274 470.072 968.648 472.027C969.013 473.937 967.732 475.425 965.778 475.799L961.024 476.709L961.602 479.73L966.578 478.778C969.243 478.268 971.328 479.297 971.711 481.296C972.161 483.65 970.028 485.256 966.518 485.927C963.009 486.599 960.274 485.787 958.315 483.49L955.88 486.167C958.622 489.188 962.375 490.266 967.173 489.348Z" fill="white"/>
<path d="M987.708 475.702L989.25 465.229L994.771 474.35L987.708 475.702ZM1003.41 481.954L991.03 461.297L986.676 462.13L982.797 485.898L986.307 485.226L987.182 479.21L996.644 477.4L999.812 482.642L1003.41 481.954Z" fill="white"/>
<path d="M1029.25 477.01L1025 454.797L1010.07 457.653C1010.54 460.097 1010.92 462.096 1011.17 463.615L1011.87 468.038C1012.28 470.907 1012.22 472.255 1012.09 473.753C1011.75 476.03 1010.81 476.67 1009.09 478.013L1011.25 481.144C1013.1 479.962 1014.33 478.713 1014.99 477.343C1015.65 475.974 1015.92 474.033 1015.78 471.619C1015.68 469.152 1015.19 465.378 1014.25 460.261L1022.07 458.764L1025.69 477.69L1029.25 477.01Z" fill="white"/>
<path d="M443.001 279.606L442.581 269.337L392.855 278.852C395.357 268.443 403.3 260.77 415.991 251.489C423.456 245.725 428.146 241.61 433.211 235.047C438.249 228.349 440.056 220.171 438.378 211.402C437.113 204.791 433.641 199.861 428.099 196.586C422.556 193.311 416.207 192.428 408.89 193.828C399.812 195.565 392.521 200.037 386.883 207.269C381.244 214.502 378.521 222.295 378.715 230.65L390.368 228.42C390.174 223.003 391.871 217.923 395.645 213.425C399.419 208.926 404.207 206.052 409.897 204.963C413.827 204.211 417.692 204.591 421.221 206.153C424.75 207.716 426.996 210.642 427.796 214.825C428.803 220.087 427.158 225.436 424.687 229.405C423.506 231.31 421.674 233.478 419.055 235.938C416.571 238.371 414.416 240.322 412.59 241.79C410.764 243.258 408.203 245.287 404.88 247.741C390.034 258.973 380.608 272.105 381.351 291.403L443.001 279.606Z" fill="white"/>
<path d="M524.537 173.098L457.603 185.905L458.455 210.916L469.024 208.894L468.591 194.152L509.917 186.245C498.233 197.851 490.271 210.563 485.71 224.162C481.149 237.762 479.189 253.941 479.803 272.564L490.778 270.464C490.189 251.976 492.337 236.041 497.492 222.607C502.621 209.039 511.776 195.959 524.821 183.393L524.537 173.098Z" fill="white"/>
<path d="M582.474 250.821C586.313 245.191 584.893 237.771 579.298 234.226C573.924 230.36 566.471 231.785 562.633 237.415C559.013 242.723 560.433 250.143 565.808 254.01C571.402 257.555 578.854 256.129 582.474 250.821Z" fill="white"/>
<path d="M686.99 222.571L664.498 226.874L661.958 146.803L651.389 148.825L623.343 171.814L630.802 178.498L651.816 161.331L653.929 228.897L626.017 234.237L626.302 244.532L687.274 232.866L686.99 222.571Z" fill="white"/>
<path d="M767.976 217.424L767.556 207.155L717.83 216.67C720.333 206.261 728.275 198.587 740.966 189.306C748.431 183.542 753.121 179.428 758.186 172.865C763.225 166.166 765.031 157.989 763.353 149.219C762.088 142.608 758.616 137.678 753.074 134.403C747.531 131.128 741.182 130.245 733.865 131.645C724.787 133.382 717.497 137.854 711.858 145.087C706.219 152.319 703.497 160.113 703.691 168.467L715.343 166.237C715.149 160.82 716.846 155.74 720.62 151.242C724.394 146.744 729.182 143.87 734.873 142.781C738.802 142.029 742.667 142.408 746.196 143.971C749.726 145.533 751.971 148.46 752.772 152.642C753.778 157.904 752.133 163.254 749.662 167.223C748.482 169.127 746.649 171.296 744.03 173.755C741.546 176.188 739.391 178.139 737.565 179.607C735.739 181.076 733.178 183.104 729.855 185.558C715.009 196.79 705.583 209.922 706.326 229.22L767.976 217.424Z" fill="white"/>
<path d="M826.205 204.184C830.044 198.554 828.624 191.134 823.03 187.589C817.655 183.723 810.203 185.149 806.364 190.778C802.745 196.086 804.165 203.506 809.539 207.373C815.134 210.918 822.586 209.492 826.205 204.184Z" fill="white"/>
<path d="M930.464 186.332L930.044 176.063L880.317 185.578C882.82 175.169 890.763 167.496 903.454 158.215C910.918 152.451 915.609 148.337 920.674 141.773C925.712 135.075 927.519 126.897 925.841 118.128C924.576 111.517 921.104 106.587 915.561 103.312C910.019 100.037 903.67 99.1538 896.353 100.554C887.275 102.291 879.984 106.763 874.345 113.995C868.707 121.228 865.984 129.022 866.178 137.376L877.831 135.146C877.637 129.729 879.334 124.649 883.108 120.151C886.882 115.652 891.669 112.778 897.36 111.689C901.29 110.938 905.155 111.317 908.684 112.879C912.213 114.442 914.459 117.369 915.259 121.551C916.266 126.813 914.621 132.162 912.15 136.132C910.969 138.036 909.137 140.205 906.518 142.664C904.034 145.097 901.879 147.048 900.053 148.516C898.227 149.984 895.665 152.013 892.343 154.467C877.497 165.699 868.071 178.831 868.814 198.129L930.464 186.332Z" fill="white"/>
<path d="M1011.97 160.388L989.473 164.692L986.933 84.6203L976.365 86.6425L948.318 109.631L955.777 116.315L976.791 99.148L978.905 166.714L950.993 172.055L951.277 182.35L1012.25 170.683L1011.97 160.388Z" fill="white"/>
<path d="M145.895 678.896L138.902 642.35L325.667 606.613L332.66 643.159L145.895 678.896Z" fill="white"/>
<path d="M135.531 624.757L133.2 612.575L319.966 576.838L322.297 589.02L135.531 624.757Z" fill="white"/>
<path d="M122.062 554.365L116.624 525.941L303.389 490.204L308.828 518.629L122.062 554.365Z" fill="white"/>
<path d="M111.445 498.876L107.042 475.866L293.808 440.129L298.211 463.139L111.445 498.876Z" fill="white"/>
<path d="M89.9492 386.525L86.8413 370.283L273.607 334.546L276.715 350.789L89.9492 386.525Z" fill="white"/>
<path d="M99.5312 436.61L93.0563 402.771L279.822 367.035L286.297 400.874L99.5312 436.61Z" fill="white"/>
<path d="M78.8086 328.308L71.2465 288.787L258.012 253.05L265.574 292.571L78.8086 328.308Z" fill="white"/>
<path d="M84.418 357.631L81.9786 344.882L268.744 309.146L271.183 321.894L84.418 357.631Z" fill="white"/>
<path d="M67.9336 271.477L64.5666 253.88L251.332 218.144L254.699 235.74L67.9336 271.477Z" fill="white"/>
<path d="M126.469 577.382L125.433 571.968L312.198 536.231L313.234 541.645L126.469 577.382Z" fill="white"/>
<path d="M105.488 467.741L104.452 462.327L291.218 426.59L292.254 432.004L105.488 467.741Z" fill="white"/>
<path d="M63.0117 245.755L61.9757 240.341L248.741 204.604L249.777 210.018L63.0117 245.755Z" fill="white"/>
<path d="M385.084 614.941L368.854 611.367L395.011 610.236L394.357 607.021L365.743 608.299L366.947 614.222L383.193 617.66L368.623 622.471L369.792 628.225L398.407 626.947L397.753 623.732L371.426 624.897L386.132 620.102L385.084 614.941Z" fill="white"/>
<path d="M391.365 590.113C390.609 586.39 388.146 583.455 384.756 581.853L383.574 584.56C385.862 585.549 387.539 587.895 388.089 590.603C388.768 593.945 387.151 596.697 384.156 597.702C382.241 589.369 380.067 585.229 377.777 583.58C376.111 582.376 374.754 582.256 373.176 582.576C369.976 583.227 368.454 586.664 369.374 591.191C370.104 594.787 371.943 597.497 374.942 599.354C377.94 601.212 381.082 601.807 384.452 601.122C387.097 600.584 389.058 599.305 390.335 597.283C391.569 595.27 391.924 592.863 391.365 590.113ZM372.847 591.013C372.322 588.433 372.798 586.618 374.291 586.315C375.101 586.15 375.844 586.307 376.519 586.787C377.185 587.224 377.955 588.389 378.828 590.282C379.693 592.133 380.491 594.746 381.213 598.08C377.244 598.005 373.741 595.413 372.847 591.013Z" fill="white"/>
<path d="M374.367 572.043C372.694 572.119 371.217 571.626 369.978 570.556C368.687 569.453 367.892 568.161 367.591 566.68C367.083 564.184 368.164 562.29 370.895 561.736C371.321 561.649 371.756 561.605 372.243 561.594L385.01 561.026L384.33 557.684L371.043 558.313C370.514 558.333 369.994 558.395 369.524 558.49C365.557 559.296 363.565 562.609 364.382 566.628C364.88 569.081 366.291 570.997 368.615 572.375C368.026 572.319 367.181 572.314 366.003 572.421L366.674 575.721L387.804 574.775L387.133 571.475L374.367 572.043Z" fill="white"/>
<path d="M380.195 535.149C379.671 532.568 377.474 530.504 374.205 529.935L373.022 532.642C375.259 532.936 376.762 533.996 377.046 535.393C377.467 537.465 375.891 538.887 372.307 539.616C370.307 531.52 365.807 530.144 361.925 530.933C359.067 531.513 357.696 533.73 358.212 536.269C358.745 538.892 360.395 540.671 363.119 541.615C360.816 542.744 359.854 544.349 360.267 546.38C360.593 547.987 361.602 549.236 363.345 550.159C365.087 551.083 367.059 551.607 369.313 551.766C371.557 551.882 373.836 551.728 376.182 551.251C380.619 550.349 382.843 548.179 382.258 545.302C381.837 543.229 380.205 541.755 377.404 540.87C379.749 539.513 380.694 537.603 380.195 535.149ZM361.472 536.575C361.24 535.433 361.802 534.702 363.21 534.416C364.362 534.182 365.489 534.481 366.668 535.255C367.847 536.029 368.728 537.523 369.329 539.824C364.763 539.871 361.894 538.648 361.472 536.575ZM375.009 548.318C372.492 548.829 370.059 548.883 367.635 548.539C365.202 548.152 363.835 547.328 363.578 546.059C363.302 544.705 364.487 543.76 367.175 543.214C369.692 542.702 372.209 542.631 374.676 542.967C377.101 543.311 378.459 544.092 378.717 545.361C379 546.757 377.781 547.754 375.009 548.318Z" fill="white"/>
<path d="M356.258 490.591L358.012 499.221L361.272 499.087L360.188 493.757L366.921 493.446C367.862 494.796 368.513 496.47 368.918 498.458C369.923 503.408 367.334 506.622 362.172 507.671C357.394 508.642 352.827 508.028 349.435 505.325C347.735 503.953 346.665 502.188 346.227 500.03C345.737 497.619 346.466 494.871 348.034 493.187L345.189 491.21C342.923 493.609 342.202 496.839 343.019 500.858C343.913 505.258 346.837 508.497 350.662 510.054C354.48 511.569 358.995 511.929 363.432 511.027C370.257 509.64 373.656 505.161 372.28 498.392C371.687 495.473 370.326 492.71 368.231 490.052L356.258 490.591Z" fill="white"/>
<path d="M354.507 476.514C351.034 476.692 348.445 474.663 347.8 471.49C347.413 469.586 347.71 468.204 348.69 467.344L345.99 464.985C344.66 466.313 344.058 468.814 344.48 470.887C345.021 473.552 346.449 475.553 348.713 476.855C347.646 476.851 346.801 476.847 346.144 476.892L347.933 485.692L351.192 485.558L350.075 480.058L367.945 479.246L367.274 475.946L354.507 476.514Z" fill="white"/>
<path d="M347.535 440.459C344.848 441.006 342.878 442.243 341.593 444.222C340.298 446.159 339.918 448.439 340.459 451.105C341.138 454.447 342.926 456.903 345.787 458.524C348.649 460.145 351.765 460.613 355.049 459.946C357.78 459.391 359.792 458.145 361.129 456.199C362.457 454.211 362.838 451.931 362.296 449.266C361.591 445.797 359.795 443.298 356.866 441.779C353.927 440.218 350.82 439.792 347.535 440.459ZM354.174 456.511C351.827 456.988 349.676 456.676 347.643 455.636C345.611 454.595 344.328 452.873 343.838 450.462C343.176 447.204 345.118 444.519 348.573 443.817C350.919 443.34 353.105 443.601 355.137 444.641C357.17 445.682 358.402 447.37 358.892 449.781C359.571 453.124 357.629 455.809 354.174 456.511Z" fill="white"/>
<path d="M345.958 416.084C344.848 416.309 343.893 416.635 343.1 417.105L344.598 420.104C345.332 419.779 346.04 419.547 346.765 419.4C350.306 418.68 352.808 419.846 353.487 423.188C353.943 425.43 353.015 426.984 350.839 427.426C350.626 427.47 350.276 427.497 349.756 427.558L339.498 428.013L337.09 416.168L333.839 416.344L336.238 428.147L329.59 428.441L330.747 431.73L336.908 431.447L337.777 435.72L341.037 435.586L340.168 431.313L350.554 430.832C351.126 430.804 351.689 430.734 352.201 430.63C355.998 429.858 357.777 427.03 356.874 422.587C356.384 420.176 355.118 418.319 353.051 417.109C350.984 415.899 348.645 415.537 345.958 416.084Z" fill="white"/>
<path d="M351.762 397.432C351.006 393.709 348.543 390.774 345.153 389.172L343.97 391.879C346.259 392.868 347.935 395.214 348.486 397.922C349.165 401.264 347.547 404.016 344.553 405.021C342.638 396.687 340.464 392.548 338.174 390.898C336.508 389.695 335.151 389.575 333.572 389.895C330.373 390.546 328.85 393.983 329.77 398.509C330.501 402.105 332.34 404.815 335.338 406.673C338.337 408.531 341.478 409.126 344.849 408.441C347.493 407.903 349.454 406.624 350.732 404.602C351.966 402.589 352.321 400.182 351.762 397.432ZM333.244 398.332C332.719 395.752 333.194 393.937 334.687 393.633C335.498 393.469 336.241 393.626 336.916 394.106C337.582 394.543 338.352 395.708 339.225 397.601C340.09 399.452 340.888 402.065 341.609 405.399C337.641 405.324 334.138 402.732 333.244 398.332Z" fill="white"/>
<path d="M325.763 364.809C324.41 367.551 324.107 370.652 324.821 374.164C325.964 379.79 329.142 381.876 332.854 381.122C335.541 380.575 337.006 378.383 337.248 374.546C337.247 374.326 337.264 373.97 337.314 373.563C337.456 371.199 337.633 369.666 337.871 368.868C338.108 368.071 338.594 367.62 339.362 367.464C341.282 367.074 342.598 368.524 343.269 371.824C343.871 374.786 343.499 377.328 342.145 379.41L345.264 381.859C346.976 379.353 347.38 375.879 346.469 371.394C345.291 365.598 341.907 363.158 338.153 363.921C335.125 364.537 334.189 366.929 333.889 371.352L333.847 372.241C333.715 374.867 333.682 375.799 333.043 376.81C332.745 377.311 332.277 377.627 331.679 377.748C329.845 378.121 328.657 376.864 328.081 374.03C327.496 371.153 327.757 368.721 328.898 366.683L325.763 364.809Z" fill="white"/>
<path d="M318.381 340.291L319.052 343.591C319.982 343.578 320.989 343.506 321.987 343.391L322.073 343.374C320.087 345.187 319.399 347.485 319.975 350.32C320.542 353.112 322.346 355.212 325.378 356.579C328.367 357.954 331.628 358.26 335.083 357.558C340.245 356.509 342.715 352.923 341.812 348.481C341.322 346.07 339.86 344.12 337.485 342.709C339.209 342.667 340.139 342.654 340.182 342.645L348.545 342.267L347.874 338.967L318.381 340.291ZM327.765 342.966C330.239 342.463 332.561 342.74 334.721 343.755C336.882 344.769 338.165 346.271 338.569 348.259C339.145 351.094 337.237 353.508 333.653 354.236C331.179 354.739 328.866 354.504 326.748 353.481C324.587 352.466 323.304 350.965 322.9 348.977C322.324 346.142 324.224 343.686 327.765 342.966Z" fill="white"/>
<path d="M334.287 313.64L313.157 314.586L313.836 317.928L326.825 317.359C328.455 317.292 329.838 317.76 331.069 318.787C332.299 319.815 333.035 321.031 333.327 322.469C333.809 324.838 332.719 326.69 330.117 327.219C329.562 327.331 329.17 327.367 328.863 327.386L315.874 327.955L316.562 331.339L330.08 330.751C330.609 330.731 331.087 330.678 331.556 330.583C335.438 329.794 337.345 326.499 336.545 322.564C336.055 320.153 334.704 318.313 332.491 317.045C333.166 317.084 334.011 317.088 334.975 317.024L334.287 313.64Z" fill="white"/>
<path d="M330.977 295.167C330.22 291.444 327.758 288.508 324.368 286.907L323.185 289.614C325.474 290.602 327.15 292.949 327.701 295.656C328.38 298.999 326.762 301.75 323.768 302.755C321.853 294.422 319.679 290.282 317.389 288.633C315.723 287.43 314.366 287.309 312.787 287.63C309.588 288.28 308.065 291.717 308.985 296.244C309.716 299.84 311.555 302.55 314.553 304.408C317.552 306.265 320.693 306.86 324.064 306.175C326.708 305.638 328.669 304.358 329.947 302.337C331.181 300.324 331.536 297.917 330.977 295.167ZM312.459 296.067C311.934 293.486 312.409 291.672 313.902 291.368C314.713 291.203 315.456 291.361 316.131 291.84C316.797 292.278 317.567 293.443 318.44 295.336C319.305 297.186 320.103 299.8 320.824 303.133C316.856 303.059 313.353 300.467 312.459 296.067Z" fill="white"/>
<path d="M296.792 255.073C296.302 252.662 297.537 250.869 299.968 250.375C301.547 250.054 303.015 250.284 304.382 251.108C305.74 251.889 306.561 253.088 306.888 254.695L308.272 261.507L298.193 261.969L296.792 255.073ZM309.924 253.462C309.451 251.135 308.109 249.337 305.939 248.06C303.769 246.783 301.379 246.388 298.777 246.916C294.81 247.723 292.647 250.849 293.472 254.911L295.613 265.445L324.227 264.167L323.548 260.825L311.532 261.373L309.924 253.462Z" fill="white"/>
<path d="M304.972 232.811C301.499 232.988 298.91 230.959 298.265 227.786C297.878 225.883 298.175 224.501 299.155 223.641L296.455 221.282C295.125 222.61 294.523 225.111 294.944 227.184C295.486 229.849 296.914 231.85 299.178 233.152C298.111 233.148 297.266 233.144 296.609 233.189L298.397 241.989L301.657 241.855L300.54 236.355L318.41 235.543L317.739 232.243L304.972 232.811Z" fill="white"/>
<path d="M298 196.756C295.313 197.302 293.343 198.54 292.057 200.519C290.763 202.456 290.382 204.736 290.924 207.401C291.603 210.743 293.391 213.2 296.252 214.821C299.114 216.442 302.229 216.91 305.514 216.242C308.244 215.687 310.257 214.442 311.594 212.496C312.922 210.508 313.303 208.228 312.761 205.563C312.056 202.093 310.26 199.595 307.331 198.076C304.392 196.514 301.285 196.089 298 196.756ZM304.639 212.808C302.292 213.285 300.141 212.973 298.108 211.932C296.076 210.892 294.793 209.17 294.303 206.759C293.641 203.501 295.583 200.816 299.038 200.114C301.384 199.637 303.569 199.897 305.602 200.938C307.635 201.979 308.867 203.667 309.357 206.078C310.036 209.42 308.094 212.106 304.639 212.808Z" fill="white"/>
</g>
<defs>
<filter id="filter0_d_173:3990" x="0" y="0.996094" width="1144.95" height="745.441" filterUnits="userSpaceOnUse" color-interpolation-filters="sRGB">
<feFlood flood-opacity="0" result="BackgroundImageFix"/>
<feColorMatrix in="SourceAlpha" type="matrix" values="0 0 0 0 0 0 0 0 0 0 0 0 0 0 0 0 0 0 127 0" result="hardAlpha"/>
<feOffset dy="4"/>
<feGaussianBlur stdDeviation="15"/>
<feComposite in2="hardAlpha" operator="out"/>
<feColorMatrix type="matrix" values="0 0 0 0 0 0 0 0 0 0 0 0 0 0 0 0 0 0 0.5 0"/>
<feBlend mode="normal" in2="BackgroundImageFix" result="effect1_dropShadow_173:3990"/>
<feBlend mode="normal" in="SourceGraphic" in2="effect1_dropShadow_173:3990" result="shape"/>
</filter>
</defs>
</svg>
